<?xml version="1.0" standalone="no"?>
<!DOCTYPE svg PUBLIC "-//W3C//DTD SVG 1.1//EN" "http://www.w3.org/Graphics/SVG/1.1/DTD/svg11.dtd" >
<!--
2013-9-30: Created.
-->
<svg>
<metadata>
Created by iconfont
</metadata>
<defs>

<font id="iconfont" horiz-adv-x="1024" >
  <font-face
    font-family="iconfont"
    font-weight="500"
    font-stretch="normal"
    units-per-em="1024"
    ascent="896"
    descent="-128"
  />
    <missing-glyph />
    
    <glyph glyph-name="x" unicode="x" horiz-adv-x="1001"
d="M281 543q-27 -1 -53 -1h-83q-18 0 -36.5 -6t-32.5 -18.5t-23 -32t-9 -45.5v-76h912v41q0 16 -0.5 30t-0.5 18q0 13 -5 29t-17 29.5t-31.5 22.5t-49.5 9h-133v-97h-438v97zM955 310v-52q0 -23 0.5 -52t0.5 -58t-10.5 -47.5t-26 -30t-33 -16t-31.5 -4.5q-14 -1 -29.5 -0.5
t-29.5 0.5h-32l-45 128h-439l-44 -128h-29h-34q-20 0 -45 1q-25 0 -41 9.5t-25.5 23t-13.5 29.5t-4 30v167h911zM163 247q-12 0 -21 -8.5t-9 -21.5t9 -21.5t21 -8.5q13 0 22 8.5t9 21.5t-9 21.5t-22 8.5zM316 123q-8 -26 -14 -48q-5 -19 -10.5 -37t-7.5 -25t-3 -15t1 -14.5
t9.5 -10.5t21.5 -4h37h67h81h80h64h36q23 0 34 12t2 38q-5 13 -9.5 30.5t-9.5 34.5q-5 19 -11 39h-368zM336 498v228q0 11 2.5 23t10 21.5t20.5 15.5t34 6h188q31 0 51.5 -14.5t20.5 -52.5v-227h-327z" />
    

    
    <glyph glyph-name="guanbi" unicode="&#59894;" d="M945.307242 45.97024L606.258269 381.86436l331.885829 339.040786c39.930431 41.977044 71.437006 80.363306 31.504528 120.29476-39.930431 39.930431-89.395006 17.457604-129.325437-22.472827L507.537873 479.664803 175.620321 808.494017C135.688867 848.424448 91.162768 881.130338 51.232336 841.199906 11.300882 801.268452 37.866934 750.602515 77.798389 710.672084l332.836481-329.738933L80.868307 44.946934c-39.931454-39.932478-69.567425-82.232886-29.635971-122.164341 39.930431-39.930431 87.526449-15.589047 127.457904 22.295796l330.793962 337.925382 338.00213-334.855464c39.930431-39.931454 82.231863-65.297169 122.163318-25.365714 39.931454 39.931454 15.589047 83.255169-24.342408 123.187647z"  horiz-adv-x="1024" />

    
    <glyph glyph-name="zuojiantou" unicode="&#60034;" d="M736.290811 895.979534c13.81668 0 27.627221-5.290493 38.164204-15.815197 21.092387-21.099551 21.092387-55.216579 0-76.31613L358.251825 387.64297l422.234557-422.234557c21.10569-21.092387 21.10569-55.209416 0-76.31613-21.099551-21.099551-55.216579-21.099551-76.316129 0L243.776607 349.493092c-21.10569 21.099551-21.10569 55.216579 0 76.316129L698.125583 880.163313c10.529821 10.518564 24.341385 15.816221 38.165228 15.816221z m0 0"  horiz-adv-x="1024" />

    
    <glyph glyph-name="bianji" unicode="&#60037;" d="M1000.002958 827.623703L951.496198 876.131487c-26.787086 26.787086-70.220295 26.787086-97.006358 0l-46.994314-46.989197 145.520281-145.518235 46.987151 46.982034c26.792203 26.792203 26.792203 70.226434 0 97.017614z m0 0M943.47143-48.078763H77.026816V818.366875h552.264029v76.097142H79.475588c-43.383066 0-78.545914-35.170011-78.545914-78.546937v-863.999936c0-43.378973 35.162848-78.546937 78.545914-78.546937H943.47143c43.383066 0 78.545914 35.167964 78.545914 78.546937V501.735471H943.47143v-549.814234z m0 0M902.99046 633.593592L757.472226 779.111826 363.812471 385.460258l0.245594-0.245594-23.902387-138.777716c-3.080152-17.896602 12.500709-33.443693 30.392195-30.31954l138.436955 24.169469 0.345878-0.350994 393.659754 393.657709z m0 0"  horiz-adv-x="1024" />

    
    <glyph glyph-name="dingweidangqianweizhi" unicode="&#60049;" d="M944.445153 440.888208C918.992197 636.260235 764.269987 791.015105 568.892857 816.463978v79.536022H455.117461v-79.536022C259.745434 791.015105 105.018121 636.260235 79.563124 440.888208H0.00567v-113.775396h79.557454c25.454997-195.373047 180.177207-350.127917 375.554337-375.57679v-79.535001h113.775396v79.535001c195.371006 25.448873 350.09934 180.203743 375.553317 375.57679h79.559496V440.888208h-79.560517zM512.002097 61.631104c-178.036991 0-322.365324 144.328333-322.365324 322.372468 0 178.036991 144.328333 322.365324 322.365324 322.365324 178.043115 0 322.371448-144.328333 322.371448-322.371448S690.045212 61.631104 512.002097 61.631104zM512.002097 554.668708c-94.252176 0-170.666156-76.409898-170.666156-170.665136 0-94.263403 76.41398-170.671259 170.666156-170.671259 94.263403 0 170.671259 76.407857 170.67126 170.671259 0 94.256258-76.407857 170.665136-170.67126 170.665136z"  horiz-adv-x="1026" />

    
    <glyph glyph-name="tuichudenglu" unicode="&#60065;" d="M1009.758136 410.819832l-204.25601 196.648752c-16.344247 15.739473-40.853453 15.739473-57.191561 0-16.344247-15.72924-16.344247-39.32975 0-55.068199l134.807289-129.780809H490.93473c-24.51023 0-40.84936-15.728216-40.84936-39.327704 0-23.605627 16.338107-39.32975 40.84936-39.32975h392.183124l-134.802172-129.785925c-16.338107-15.739473-16.338107-39.341007 0-55.069224 8.172123-7.872295 16.343223-11.799744 28.592198-11.799743 12.261255 0 20.433378 3.938706 28.599362 11.799743l204.260104 200.577225s0 3.938706 4.094248 3.938706c12.249999 11.800767 12.249999 35.390022-4.094248 47.190788l-0.00921 0.00614z m0 0M899.455961 107.978503c-24.51023 0-40.854477-15.733333-40.854477-39.327704v-78.663594c0-23.594371-16.33913-39.327704-40.84936-39.327704H123.266953c-24.51023 0-40.854477 15.733333-40.854477 39.327704V776.595516c0 23.589254 16.344247 39.327704 40.854477 39.327704h694.485171c24.51023 0 40.84936-15.739473 40.84936-39.327704v-78.66871c0-23.589254 16.344247-39.327704 40.854477-39.327704 24.509207 0 40.847314 15.739473 40.847313 39.327704v78.66871c0 66.856687-53.097312 117.986181-122.552173 117.986182H123.266953c-69.443605 0-122.55729-51.129494-122.55729-117.986182v-786.608311c0-66.856687 53.114708-117.986181 122.55729-117.986182h694.485171c69.454862 0 122.552174 51.128471 122.552174 117.986182v78.663594c0 23.594371-16.33913 39.327704-40.848337 39.327704z m0 0"  horiz-adv-x="1024" />

    
    <glyph glyph-name="xialajiantou" unicode="&#60066;" d="M0.020978 608.291322c0 13.81668 5.290493 27.627221 15.815197 38.164205 21.099551 21.092387 55.216579 21.092387 76.31613 0l416.205237-416.20319 422.234557 422.234557c21.092387 21.10569 55.209416 21.10569 76.316129 0 21.099551-21.099551 21.099551-55.216579 0-76.31613L546.506397 115.778142c-21.099551-21.10569-55.216579-21.10569-76.31613 0l-454.354092 454.347953c-10.518564 10.529821-15.815197 24.342408-15.815197 38.165227z m0 0"  horiz-adv-x="1024" />

    
    <glyph glyph-name="xiugaimima" unicode="&#60067;" d="M833.432245 477.771687h-8.56405V588.787106c0 168.401408-140.363841 305.423131-312.868707 305.423131-172.505889 0-312.86973-137.021723-312.86973-305.423131V477.771687h-8.569166c-51.768037 0-93.877087-41.438785-93.877087-92.360548V-33.850713c0-50.92074 42.108027-92.358501 93.877087-92.358501h642.871653c51.774177 0 93.882204 41.437761 93.882204 92.358501V385.411139c0 50.921763-42.108027 92.360548-93.882204 92.360548zM273.746176 588.787106c0 127.232776 106.884332 230.742245 238.254336 230.742245 131.367957 0 238.252289-103.504352 238.252289-230.742245V477.771687H273.746176V588.787106zM852.693938-33.850713c0-9.751085-8.624425-17.684778-19.261693-17.684778h-642.871653c-10.632151 0-19.260669 7.933693-19.260669 17.684778V385.411139c0 9.752108 8.628518 17.684778 19.260669 17.684778h642.871653c10.632151 0 19.261693-7.931646 19.261693-17.684778V-33.850713z m0 0M512.000512 345.432613c-58.093093 0-105.303324-47.276746-105.303325-105.362676 0-44.911886 28.344558-83.055624 67.994604-98.181114v-69.252247c0-20.627806 16.70752-37.340443 37.308721-37.340443 20.600177 0 37.307697 16.712637 37.307697 37.340443v69.252247c39.650045 15.125489 67.994604 53.265134 67.994604 98.181114-0.001023 58.084906-47.217395 105.362676-105.302301 105.362676z m0-74.68191c16.889669 0 30.68179-13.758352 30.681789-30.68179 0-16.890692-13.792121-30.655184-30.681789-30.655184-16.890692 0-30.688953 13.764492-30.688953 30.655184 0 16.923438 13.797237 30.68179 30.688953 30.68179z m0 0"  horiz-adv-x="1024" />

    
    <glyph glyph-name="youjiantou" unicode="&#60069;" d="M287.708166-127.978511c-13.81668 0-27.627221 5.290493-38.164205 15.815198-21.092387 21.099551-21.092387 55.216579 0 76.316129l416.20319 416.205237L243.512594 802.59261c-21.10569 21.092387-21.10569 55.209416 0 76.31613 21.099551 21.099551 55.216579 21.099551 76.31613 0l460.393645-460.400808c21.10569-21.099551 21.10569-55.216579 0-76.31613L325.873394-112.163313c-10.529821-10.517541-24.342408-15.815197-38.165228-15.815198z m0 0"  horiz-adv-x="1024" />

    
    <glyph glyph-name="zaixiancheliang" unicode="&#60073;" d="M2.929214 397.618159c-0.013303-0.257873-0.067538-0.536212-0.044002-0.794086v-218.346936c0-15.365966 12.499685-27.850301 27.845185-27.850302h57.004295c0.028653-70.298066 56.980759-127.263475 127.299291-127.263475 70.279646 0 127.278825 56.966433 127.278825 127.263475h57.001225c15.397688 0 27.849278 12.485359 27.849278 27.815509V631.923556c0 15.379269-12.45159 27.844162-27.800159 27.844161H187.471231a28.008914 28.008914 0 0 1-23.161513-12.323676L7.567861 412.237111c-2.904143-4.322445-4.483104-9.42465-4.638647-14.618952z m296.910247 7.591909H79.324138l113.167433 169.727612h107.34789v-169.727612z m-84.830037-318.201156c-35.0861 0-63.632249 28.54615-63.63225 63.632249 0 35.07075 28.561499 63.652715 63.63225 63.652716 35.071773 0 63.647599-28.561499 63.647599-63.652716 0-35.0861-28.561499-63.632249-63.647599-63.632249zM506.54015 744.637664c-20.437471 0-36.947494-16.544815-36.947494-36.948517v-520.081049c0-20.402679 16.529465-36.966936 36.947494-36.966937h132.751466c0-70.298066 56.980759-127.263475 127.283942-127.263475 70.299089 0 127.278825 56.965409 127.278825 127.263475h90.336448c20.399609 0 36.928051 16.564257 36.92805 36.966937V707.689147c0 20.403702-16.529465 36.948517-36.947493 36.948517H506.54015z m260.030291-657.628752c-35.091216 0-63.646576 28.54615-63.646575 63.632249 0 35.07075 28.574802 63.652715 63.646575 63.652716s63.632249-28.561499 63.63225-63.652716c0-35.0861-28.541033-63.632249-63.63225-63.632249z m0 0"  horiz-adv-x="1024" />

    
    <glyph glyph-name="zhankai" unicode="&#60075;" d="M1023.974417 159.708678c0-13.81668-5.290493-27.627221-15.815197-38.163182-21.099551-21.092387-55.216579-21.092387-76.31613 0L515.638877 537.747663 93.403297 115.513106c-21.092387-21.10569-55.209416-21.10569-76.31613 0-21.099551 21.099551-21.099551 55.216579 0 76.31613l460.400808 460.393645c21.099551 21.10569 55.216579 21.10569 76.31613 0l454.355115-454.348976c10.517541-10.529821 15.815197-24.341385 15.815197-38.165227z m0 0"  horiz-adv-x="1024" />

    
    <glyph glyph-name="zanting" unicode="&#60082;" d="M989.468021-119.471766H37.227368c-14.797008 0-26.835182 12.038174-26.835182 26.835182V859.603045c0 14.797008 12.038174 26.835182 26.835182 26.835182h952.239629c14.797008 0 26.835182-12.038174 26.835182-26.835182v-952.240653c0-14.795984-12.037151-26.834158-26.834158-26.834158z m-952.240653 981.350644a2.27788 2.27788 0 0 1-2.275833-2.275833v-952.240653c0-1.255597 1.02126-2.275833 2.275833-2.275833h952.239629a2.27788 2.27788 0 0 1 2.275833 2.275833V859.603045a2.27788 2.27788 0 0 1-2.275833 2.275833H37.227368zM433.166025 177.609373c0-30.234605-25.177426-54.750975-56.290027-54.750975-31.114648 0-56.292074 24.51637-56.292074 54.750975V574.837396c0 30.234605 25.177426 54.751998 56.292074 54.751998 31.111578 0 56.290027-24.517393 56.290027-54.751998v-397.228023z m293.219182 0c0-30.234605-25.175379-54.750975-56.290028-54.750975-31.115672 0-56.292074 24.51637-56.292074 54.750975V574.837396c0 30.234605 25.177426 54.751998 56.292074 54.751998s56.290027-24.517393 56.290028-54.751998v-397.228023z m0 0"  horiz-adv-x="1024" />

    
    <glyph glyph-name="tingzhi" unicode="&#60083;" d="M989.468021-119.471766H37.227368c-14.797008 0-26.835182 12.038174-26.835182 26.835182V859.603045c0 14.797008 12.038174 26.835182 26.835182 26.835182h952.239629c14.797008 0 26.835182-12.038174 26.835182-26.835182v-952.240653c0-14.795984-12.037151-26.834158-26.834158-26.834158z m-952.240653 981.350644a2.27788 2.27788 0 0 1-2.275833-2.275833v-952.240653c0-1.255597 1.02126-2.275833 2.275833-2.275833h952.239629a2.27788 2.27788 0 0 1 2.275833 2.275833V859.603045a2.27788 2.27788 0 0 1-2.275833 2.275833H37.227368zM725.498 218.006432c0-31.236422-25.3739-56.580646-56.66865-56.580647H338.051761c-31.29475 0-56.668651 25.344225-56.668651 56.580647V548.960029c0 31.236422 25.3739 56.580646 56.668651 56.580646h330.777589c31.29475 0 56.668651-25.344225 56.66865-56.580646v-330.953597z m0 0"  horiz-adv-x="1024" />

    
    <glyph glyph-name="zhongzhi1" unicode="&#60084;" d="M989.468021-119.471766H37.227368c-14.797008 0-26.835182 12.038174-26.835182 26.835182V859.603045c0 14.797008 12.038174 26.835182 26.835182 26.835182h952.239629c14.797008 0 26.835182-12.038174 26.835182-26.835182v-952.240653c0-14.795984-12.037151-26.834158-26.834158-26.834158z m-952.240653 981.350644a2.27788 2.27788 0 0 1-2.275833-2.275833v-952.240653c0-1.255597 1.02126-2.275833 2.275833-2.275833h952.239629a2.27788 2.27788 0 0 1 2.275833 2.275833V859.603045a2.27788 2.27788 0 0 1-2.275833 2.275833H37.227368zM610.414939 512.863926l-28.724205-34.918277 149.537781-13.687744-44.674479 141.118018-35.580356-43.22343c-38.184671 27.753087-84.699054 43.223431-133.641743 43.22343-124.401288 0-225.242997-99.245352-225.242997-221.666542 0-122.42426 100.847849-221.669612 225.242997-221.669612 94.1718 0 177.412642 57.420781 210.468502 142.569066 6.339382 16.337083-1.972934 34.649148-18.563797 40.890293-16.619516 6.235005-35.215036-1.940189-41.548279-18.276249-23.612791-60.83146-83.078137-101.840456-150.356426-101.840456-88.86084 0-160.89341 70.886467-160.89341 158.334121 0 87.445608 72.031547 158.341285 160.89341 158.341285a161.92081 161.92081 0 0 0 93.083002-29.193903z m0 0"  horiz-adv-x="1024" />

    
    <glyph glyph-name="bofang" unicode="&#60088;" d="M989.468021-119.471766H37.227368c-14.797008 0-26.835182 12.038174-26.835182 26.835182V859.603045c0 14.797008 12.038174 26.835182 26.835182 26.835182h952.239629c14.797008 0 26.835182-12.038174 26.835182-26.835182v-952.240653c0-14.795984-12.037151-26.834158-26.834158-26.834158z m-952.240653 981.350644a2.27788 2.27788 0 0 1-2.275833-2.275833v-952.240653c0-1.255597 1.02126-2.275833 2.275833-2.275833h952.239629a2.27788 2.27788 0 0 1 2.275833 2.275833V859.603045a2.27788 2.27788 0 0 1-2.275833 2.275833H37.227368zM754.150574 416.072463c20.073174-11.558244 26.995841-37.239136 15.364942-57.311287a41.957601 41.957601 0 0 0-15.364942-15.368013L410.132426 100.850152c-20.072151-11.625782-45.753043-4.704139-57.382918 15.368012-3.666506 6.438643-5.674233 13.70514-5.603625 21.109784l0.411369 486.678288c-0.067538 23.189142 18.758226 42.017976 41.947368 42.08449a42.614563 42.614563 0 0 0 21.113877-5.606694l343.532077-244.411569z"  horiz-adv-x="1024" />

    
    <glyph glyph-name="shouqi" unicode="&#60144;" d="M97.166505 419.279504c-17.940604 17.940604-47.026036 17.940604-64.966641 0-17.941628-17.940604-17.941628-47.026036 0-64.96664l479.363696-479.363696 479.363695 479.363696c17.940604 17.940604 17.940604 47.026036 0 64.96664-17.941628 17.940604-47.026036 17.940604-64.967664 0L509.713422 3.033335 97.166505 419.279504z m0 459.382619c-17.940604 17.940604-47.026036 17.940604-64.966641 0-17.941628-17.940604-17.941628-47.026036 0-64.966641l479.363696-479.363695L990.927255 813.695482c17.940604 17.940604 17.940604 47.026036 0 64.961525-17.941628 17.940604-47.026036 17.940604-64.967664 0L510.459413 463.156828 97.166505 878.662123z m413.292908-415.505295"  horiz-adv-x="1024" />

    
    <glyph glyph-name="sousuo" unicode="&#60145;" d="M1002.966453-20.447449L754.29486 228.223121c44.633546 70.139453 76.516698 159.4045 76.516698 248.671592 0 229.54293-184.910407 414.453337-414.453337 414.453337-229.543953 0-414.453337-184.91143-414.453337-414.453337s184.909383-414.453337 414.453337-414.453336c89.265046 0 178.230264 31.558763 242.293325 82.893942l6.377244-6.377245 242.294349-242.294348c25.505907-25.504884 70.13843-25.504884 95.644337-6.377244 25.50386 25.50386 25.50386 63.760163-0.001023 89.266069zM79.991334 476.894713c0 183.473685 152.893202 336.366887 336.366887 336.366888 183.467545 0 336.360747-152.893202 336.360748-336.366888 0-183.469592-152.893202-336.361771-336.360748-336.36177-183.474708 0-336.366887 152.892179-336.366887 336.36177z"  horiz-adv-x="1024" />

    
    <glyph glyph-name="shushouqi" unicode="&#60146;" d="M902.942365-124.831844H119.469464c-64.789609 0-117.522624 52.726875-117.522624 117.522624V776.163681c0 64.789609 52.733015 117.522624 117.522624 117.522624h783.472901c64.795748 0 117.522624-52.733015 117.522624-117.522624v-783.472901c0-64.795748-52.726875-117.522624-117.522624-117.522624zM119.469464 815.339936c-21.585621 0-39.176254-17.591657-39.176255-39.176255v-783.472901c0-21.620413 17.591657-39.169091 39.176255-39.169092h783.472901c21.620413 0 39.169091 17.548678 39.169091 39.169092V776.163681c0 21.585621-17.548678 39.176254-39.169091 39.176255H119.469464zM550.201555 55.602621c0-20.12434-17.458627-36.437887-38.995129-36.437887s-38.995129 16.313547-38.995129 36.437887v657.648195c0 20.12434 17.458627 36.437887 38.995129 36.437887s38.995129-16.313547 38.995129-36.437887v-657.648195zM182.382329 345.431589c-20.12434 0-36.437887 17.458627-36.437887 38.99513s16.313547 38.995129 36.437887 38.995129h657.648194c20.12434 0 36.437887-17.458627 36.437887-38.995129s-16.313547-38.995129-36.437887-38.99513h-657.648194z"  horiz-adv-x="1024" />

    
    <glyph glyph-name="shuzhankai" unicode="&#60147;" d="M902.942365-124.831844H119.469464c-64.789609 0-117.522624 52.726875-117.522624 117.522624V776.163681c0 64.789609 52.733015 117.522624 117.522624 117.522624h783.472901c64.795748 0 117.522624-52.733015 117.522624-117.522624v-783.472901c0-64.795748-52.726875-117.522624-117.522624-117.522624zM119.469464 815.339936c-21.585621 0-39.176254-17.591657-39.176255-39.176255v-783.472901c0-21.620413 17.591657-39.169091 39.176255-39.169092h783.472901c21.620413 0 39.169091 17.548678 39.169091 39.169092V776.163681c0 21.585621-17.548678 39.176254-39.169091 39.176255H119.469464zM182.382329 345.431589c-20.12434 0-36.437887 17.458627-36.437887 38.99513s16.313547 38.995129 36.437887 38.995129h657.648194c20.12434 0 36.437887-17.458627 36.437887-38.995129s-16.313547-38.995129-36.437887-38.99513h-657.648194z"  horiz-adv-x="1024" />

    
    <glyph glyph-name="shipinjiankong" unicode="&#60148;" d="M731.889571 417.365922c0 117.834732-97.337909 210.047924-215.167525 210.047923S301.552475 530.075937 301.552475 417.365922c0-117.829616 97.339956-215.167524 215.168548-215.167525S731.889571 299.53733 731.889571 417.365922z m-349.97993 0.001023c0 74.382081 60.434417 134.812405 134.812405 134.812405s134.812405-60.430324 134.812406-134.812405c0-74.376964-60.434417-134.807289-134.812406-134.807288s-134.812405 60.429301-134.812405 134.807288zM789.101597-43.705152h-72.577992l-56.357566 143.445016c158.816099 56.352449 266.399349 210.04383 266.39935 384.228965 0 225.413889-184.431499 409.845389-409.844366 409.845389-225.413889 0-409.845389-184.431499-409.845389-409.845389 0-174.186158 107.584274-322.751798 261.275655-379.10834l-56.352449-143.44604h-56.352449c-15.370059 0-30.741142-29.128411-30.741141-44.494377 0-15.370059 15.370059-44.499493 30.741141-44.499493h537.919323c19.082614 0 30.741142 29.128411 30.741142 44.499493 0 10.246365-10.82351 39.374776-35.005259 39.374776zM198.371488 483.968829c0 173.219133 140.447752 318.350558 318.350558 318.350558 177.901783 0 318.349535-140.447752 318.349535-318.350558 0-177.901783-140.447752-318.349535-318.349535-318.349535-177.902806 0-318.350558 140.447752-318.350558 318.349535zM387.573641-43.705152l42.722011 122.948193v5.125741c28.479635-5.125741 52.216245-10.245342 80.700996-10.245342 23.730471 0 52.216245 5.119601 75.95081 10.245342v-5.125741l42.72201-122.948193H387.573641zM465.490222 709.382719c0-28.293393 22.938432-51.226708 51.231824-51.226709s51.231825 22.933315 51.231825 51.226709a51.236941 51.236941 0 0 1-25.616424 44.367486 51.237965 51.237965 0 0 1-51.231825 0 51.234895 51.234895 0 0 1-25.6154-44.367486z m0 0"  horiz-adv-x="1024" />

    
    <glyph glyph-name="tianjia" unicode="&#60149;" d="M883.875101-45.880701H72.320631V765.674792h391.373688V836.951139H74.61386c-40.634466 0-73.569576-32.942273-73.569576-73.571622v-809.265334c0-40.630373 32.93511-73.571622 73.569576-73.571623h809.262264c40.634466 0 73.569576 32.940227 73.569576 73.571623V241.406374h-73.569576v-287.287075z m0 0M518.274402 801.313477c0-19.682271-15.880689-35.638685-35.470863-35.638685H321.87022c-19.590174 0-35.470863 15.95539-35.470863 35.638685 0 19.682271 15.880689 35.638685 35.470863 35.638685h160.933319c19.590174-0.001023 35.470863-15.956414 35.470863-35.638685zM920.660912 302.895821c20.315698 0 36.784788-15.880689 36.784788-35.470863v-160.933319c0-19.590174-16.46909-35.470863-36.784788-35.470863s-36.784788 15.880689-36.784788 35.470863V267.425981c-0.001023 19.589151 16.468067 35.469839 36.784788 35.46984zM790.658046 885.988995c19.965727 0 36.150338-15.606443 36.150338-34.858925v-395.943774c0-19.25146-16.185634-34.858926-36.150338-34.858926-19.965727 0-36.150338 15.606443-36.150338 34.858926V851.131093C754.506684 870.382553 770.692319 885.988995 790.658046 885.988995zM1023.172657 653.158183c0-19.965727-15.606443-36.150338-34.858926-36.150338H593.001337c-19.25146 0-34.858926 16.184611-34.858926 36.150338 0 19.965727 15.606443 36.150338 34.858926 36.150338h395.312394c19.252483 0 34.858926-16.184611 34.858926-36.150338z"  horiz-adv-x="1024" />

    
    <glyph glyph-name="tianjiayonghuzu" unicode="&#60150;" d="M39.912523 345.004871c-20.12434 0-36.437887 17.458627-36.437887 38.995129s16.313547 38.995129 36.437887 38.995129h944.17393c20.12434 0 36.437887-17.458627 36.437887-38.995129s-16.313547-38.995129-36.437887-38.995129H39.912523zM550.994618-88.086965c0-20.12434-17.458627-36.437887-38.99513-36.437887s-38.995129 16.313547-38.995129 36.437887V856.086965c0 20.12434 17.458627 36.437887 38.995129 36.437887s38.995129-16.313547 38.99513-36.437887v-944.17393z"  horiz-adv-x="1024" />

    
    <glyph glyph-name="weilan" unicode="&#60151;" d="M977.419614 311.571411c-29.287023-204.63668-188.786691-366.148168-393.039632-397.998573v-36.338627H439.556573v36.308951C235.267816-54.592107 75.768149 106.982826 46.544571 311.667601H5.247003V456.364121h43.013652C82.122881 655.810592 239.697709 811.27741 439.585225 842.449363v48.317449h144.82341v-48.413639C784.23066 811.176103 941.782975 655.795243 975.736275 456.427566h43.014676v-144.856155h-41.331337zM581.137125 769.228735v-39.74112H442.828083v39.708374c-162.306596-28.675086-290.101167-154.49263-321.318147-316.324412h44.695968v-138.313136h-46.565548c27.061332-166.871565 156.712181-298.375621 323.187727-327.792604v51.205219h138.308019v-51.205219c166.474522 29.416983 296.125371 160.92104 323.192843 327.792604h-46.572712V452.870554h44.759413c-31.278377 161.821549-159.083182 287.614533-321.379544 316.324412v0.033769zM285.980825 383.259126c0-80.467683 42.931788-154.827251 112.61894-195.058534 69.687152-40.2364 155.548682-40.2364 225.237881 0 69.692269 40.231283 112.62201 114.590851 112.62201 195.058534 0 124.397195-100.843756 225.241974-225.24095 225.241974-124.393101 0-225.237881-100.844779-225.237881-225.241974"  horiz-adv-x="1024" />

    
    <glyph glyph-name="xiala" unicode="&#60152;" d="M467.299427 110.965533L19.563056 558.692694a63.334467 63.334467 0 0 0-18.564821 44.789089 63.328327 63.328327 0 0 0 18.564821 44.789089c24.75173 24.714891 64.830541 24.714891 89.571015 0l402.953422-402.945235L915.023518 648.270872c24.749684 24.723078 64.84589 24.723078 89.595574 0 24.75173-24.75787 24.682146-64.813145 0-89.578178l-447.75172-447.727161c-24.747637-24.697495-64.810075-24.697495-89.567945 0z m0 0"  horiz-adv-x="1024" />

    
    <glyph glyph-name="xiayiji" unicode="&#60153;" d="M526.204002 30.454872V728.006891l495.876787-348.727402-495.876787-348.824617z m-27.314089 348.824617L3.014148 30.454872V728.006891l495.875765-348.727402zM3.014148 728.006891"  horiz-adv-x="1024" />

    
    <glyph glyph-name="xiazai" unicode="&#60154;" d="M1021.931387 227.087251v-271.792173c0-21.701255-17.591657-39.292911-39.292912-39.292911H41.229518c-21.701255 0-39.292911 17.591657-39.292911 39.292911V227.087251c0 21.701255 17.591657 39.297005 39.292911 39.297004 21.705348 0 39.298028-17.59575 39.298028-39.297004v-232.495168h862.812901v232.495168c0 21.701255 17.596773 39.297005 39.298028 39.297004s39.292911-17.59575 39.292912-39.297004zM484.182956 161.642726a39.243793 39.243793 0 0 1 55.590086 0l245.51367 245.461481c15.349593 15.364943 15.337313 40.264029-0.023536 55.613622-15.365966 15.349593-40.265052 15.341407-55.618739-0.023536l-178.290639-178.346921V814.087409c-0.775666 21.157879-18.152429 37.910425-39.321564 37.910424-21.173229 0-38.549991-16.752546-39.321564-37.910424v-529.844414L294.311561 462.642105a39.308261 39.308261 0 0 1-65.762773-17.624403 39.298028 39.298028 0 0 1 10.172687-37.965683l245.461481-245.409293z"  horiz-adv-x="1024" />

    
    <glyph glyph-name="youjiantoushouqi" unicode="&#60155;" d="M713.8231 72.977337l283.101753 283.1038c22.112624 22.1116 22.112624 57.9529 0 80.0645L713.8231 719.249437c-22.112624 22.1116-57.9529 22.1116-80.066547 0-22.107507-22.107507-22.107507-57.9529 0-80.060407l186.453553-186.453553H67.171354c-31.28247 0-56.621579-25.340131-56.621579-56.622602 0-31.281447 25.339108-56.621579 56.621579-56.621578h753.039775L633.757576 153.038768c-11.037381-11.042497-16.587793-25.537629-16.587793-40.032762 0-14.494109 5.517667-28.989241 16.587793-40.031739 22.112624-22.107507 57.9529-22.107507 80.066547 0v0.00307z m0 0"  horiz-adv-x="1024" />

    
    <glyph glyph-name="yuyin" unicode="&#60156;" d="M807.799448 510.08565c11.666714 0 21.624507-4.133134 29.888727-12.392238 8.259104-8.264221 12.392238-18.222013 12.392238-29.889751v-84.520999c0-42.255383-7.652284-82.911338-22.947641-121.977075-15.294334-39.065737-36.093033-73.294306-62.398142-102.679567-26.304086-29.390377-57.669444-53.931307-94.094028-73.620742-36.424584-19.694551-75.215052-32.070416-116.369358-37.140898v-87.152942h126.767172c11.660574 0 21.623483-4.133134 29.882588-12.392238s12.392238-18.222013 12.392238-29.882588c0-11.666714-4.133134-21.624507-12.392238-29.888727-8.259104-8.259104-18.222013-12.392238-29.882588-12.392239H342.98205c-11.661597 0-21.623483 4.133134-29.884634 12.392239-8.264221 8.264221-12.391215 18.222013-12.391215 29.888727 0 11.660574 4.126994 21.623483 12.391215 29.882588 8.260128 8.259104 18.222013 12.392238 29.884634 12.392238h126.767172v87.152942c-41.160445 5.070482-79.94989 17.446347-116.374474 37.140898-36.420491 19.688411-67.784826 44.230364-94.089935 73.620742-26.304086 29.385261-47.102784 63.612807-62.403259 102.679567-15.294334 39.065737-22.941502 79.721693-22.941501 121.977075v84.520999c0 11.666714 4.133134 21.624507 12.392238 29.889751 8.259104 8.259104 18.222013 12.392238 29.882587 12.392238 11.661597 0 21.624507-4.133134 29.888728-12.392238 8.259104-8.264221 12.386098-18.222013 12.386098-29.889751v-84.520999c0-45.992497 11.335163-88.416725 34.006512-127.270638 22.670326-38.853913 53.422723-69.606311 92.257193-92.252077 38.82833-22.650883 81.252559-33.987069 127.270639-34.005489 46.017056-0.020466 88.441285 11.310603 127.275755 34.005489 38.829354 22.689768 69.582775 53.44319 92.252077 92.252077 22.671349 38.809911 34.006512 81.234139 34.006511 127.270638v84.520999c0 11.666714 4.126994 21.624507 12.386099 29.889751 8.264221 8.259104 18.22713 12.392238 29.888727 12.392238h-0.033769zM512.025071 890.381026c46.64946 0 86.48677-16.510022 119.509884-49.532114 33.023114-33.023114 49.532113-72.860425 49.532114-119.509884v-338.056366c0-46.64946-16.508999-86.485747-49.532114-119.503744-33.023114-33.023114-72.860425-49.538253-119.509884-49.538253s-86.48677 16.515139-119.509884 49.538253c-33.024138 33.019021-49.532113 72.854285-49.532114 119.503744V721.339028c0 46.64946 16.508999 86.48677 49.532114 119.509884 33.023114 33.022091 72.860425 49.532113 119.509884 49.532114z m0-84.492347c-23.327288 0-43.237757-8.248871-59.737546-24.74866-16.498766-16.498766-24.753777-36.414351-24.753777-59.736523v-338.056365c0-23.322172 8.256034-43.237757 24.753777-59.736523 16.499789-16.499789 36.411281-24.74866 59.737546-24.74866s43.237757 8.248871 59.738569 24.74866c16.498766 16.498766 24.753777 36.414351 24.753777 59.736523V721.403496c0 23.322172-8.256034 43.237757-24.753777 59.736523-16.500812 16.499789-36.412304 24.74866-59.738569 24.74866z m0 0"  horiz-adv-x="1024" />

    
    <glyph glyph-name="xiaoxitongzhi" unicode="&#60157;" d="M420.284647 23.23647c14.229073-41.376363 50.172703-70.128197 91.490737-70.128197 41.46846 0 77.339436 28.731368 91.529623 70.128197H420.284647z m267.88826 39.140438c-0.180102-103.19429-77.990259-187.667194-176.397523-187.667193-98.139158 0-176.222537 84.454484-176.397522 187.667193l-0.058329 39.257096h352.910679l-0.057305-39.257096z m182.938495 374.799199v-119.124098c0.081864-8.280594 0.300852-16.561188 0.670266-24.833595 0.841158-18.85544 2.347464-37.688367 4.699022-55.011918 2.803859-20.97573 6.628978-38.024012 11.076266-49.060369 0.39295-1.020236 0.801249-1.919722 1.175779-2.745531 41.298592-5.170766 73.830519-39.000246 73.830519-81.339539 0-45.919842-38.470173-82.004689-84.926228-82.004689H145.908626c-46.391587 0-84.926228 35.987632-84.926228 82.029248 0 42.606377 32.9259 76.318176 74.049506 81.334423 0.387833 0.884137 0.781806 1.866511 1.214665 2.939959 4.369517 11.1919 8.111748 28.342512 10.896164 49.331545a651.002844 651.002844 0 0 1 4.627391 55.509245c0.364297 8.345062 0.582261 16.693194 0.665149 25.047466V437.216016c0 151.11572 95.723132 288.191678 229.335199 344.600408 6.721075 63.386656 62.914912 112.072495 130.004912 112.072495 66.890456 0 122.884748-48.390104 129.903606-111.445208 136.666636-55.111179 229.432413-190.997032 229.432412-345.267604zM564.028469 769.039423c0 24.989137-22.89443 46.449915-52.253085 46.449915-29.363771 0-52.272527-21.441335-52.272527-46.449915 0-2.488681 0.194428-4.898567 0.627287-7.28901l5.996574-33.576723-32.419364-10.585079c-116.067482-37.881772-202.854081-153.503093-202.854081-280.393062v-117.948319l-0.097214-8.096398a796.547685 796.547685 0 0 0-0.665149-20.38119 727.386512 727.386512 0 0 0-5.234211-62.327534c-9.860579-74.871221-26.734898-118.05065-77.772294-119.730918-5.369288 0-7.702426-2.158153-7.702426-3.625574 0-1.493004 2.293229-3.63069 6.526647-3.63069h731.729423c4.232394 0 6.526647 2.157129 6.526647 3.63069 0 1.486864-2.269693 3.625574-6.526647 3.625574-51.095725 0-68.752874 43.782156-78.866208 119.045303a706.504926 706.504926 0 0 0-5.291517 61.953004 798.146089 798.146089 0 0 0-0.787945 28.342512V437.176107c0 130.302695-83.278705 243.584738-202.26568 280.354175l-33.008788 10.19213 6.002714 34.065864a41.566698 41.566698 0 0 1 0.607844 7.251147z m0 0"  horiz-adv-x="1024" />

    
    <glyph glyph-name="zhankai1" unicode="&#60158;" d="M509.713422 764.966665l416.246169-416.245146c17.941628-17.940604 47.026036-17.940604 64.967664 0 17.940604 17.940604 17.940604 47.026036 0 64.96664L511.56356 893.051855 32.199864 413.688159c-17.941628-17.940604-17.941628-47.026036 0-64.96664 17.940604-17.940604 47.026036-17.940604 64.966641 0l412.546917 416.245146z m0.745991-460.123493l415.500178-415.500179c17.941628-17.940604 47.026036-17.940604 64.967664 0 17.940604 17.935488 17.940604 47.02092 0 64.961525L511.56356 433.669236 32.199864-45.695482c-17.941628-17.940604-17.941628-47.026036 0-64.966641 17.940604-17.940604 47.026036-17.940604 64.966641 0L510.459413 304.843172z m0 0"  horiz-adv-x="1024" />

    
    <glyph glyph-name="bianji1" unicode="&#60159;" d="M999.575216 826.931948L951.135994 875.372194c-26.749224 26.749224-70.122057 26.749224-96.872305 0l-46.928822-46.923706 145.317667-145.316643 46.922682 46.916542c26.755364 26.755364 26.755364 70.12922 0 96.883561z m0 0M943.122483-47.555853H77.880253V817.6874H629.377826v75.991742H80.324932c-43.322691 0-78.43642-35.120892-78.43642-78.438467v-862.801645c0-43.318598 35.113729-78.438467 78.43642-78.438466h862.797551c43.322691 0 78.43642 35.119869 78.43642 78.438466V501.496018h-78.43642v-549.051871z m0 0M902.697795 633.170966L757.381152 778.487609l-393.11331-393.106146 0.245594-0.245593-23.86964-138.585335c-3.076058-17.872043 12.483312-33.397644 30.350238-30.277584l138.244574 24.1357 0.344854-0.350994 393.114333 393.113309z m0 0"  horiz-adv-x="1024" />

    
    <glyph glyph-name="chuli" unicode="&#60160;" d="M513.130242 890.792395c-280.516882 0-507.924171-227.406267-507.924172-507.924172S232.61336-125.055948 513.130242-125.055948s507.924171 227.406267 507.924171 507.924171S793.648147 890.792395 513.130242 890.792395z m311.050292-818.974464c-40.421618-40.421618-87.475284-72.14411-139.849119-94.300736-54.184063-22.914896-111.784946-34.535561-171.201173-34.535561-59.416228 0-117.016087 11.620665-171.207314 34.535561-52.373835 22.156626-99.42136 53.879118-139.842978 94.300736-40.420595 40.420595-72.15025 87.475284-94.300736 139.849119-22.921036 54.184063-34.541701 111.784946-34.541701 171.201173s11.620665 117.016087 34.541701 171.207314c22.151509 52.373835 53.880141 99.42136 94.300736 139.842978 40.421618 40.420595 87.469144 72.149227 139.842978 94.300736 54.191226 22.921036 111.791086 34.541701 171.207314 34.541701 59.416228 0 117.01711-11.620665 171.201173-34.541701 52.373835-22.151509 99.4275-53.880141 139.849119-94.300736 40.420595-40.421618 72.14411-87.469144 94.300736-139.842978 22.914896-54.191226 34.535561-111.790062 34.535561-171.207314s-11.620665-117.01711-34.535561-171.201173c-22.150486-52.374858-53.880141-99.429547-94.300736-139.849119z m0 0M827.335387 418.681894L590.528006 594.191186c-20.12434 14.915711-48.53132 10.69048-63.439868-9.433859-14.915711-20.12434-10.69662-48.526203 9.42772-63.441915l127.204124-94.278223H225.930147c-25.046443 0-45.353954-20.307512-45.353954-45.353954s20.307512-45.353954 45.353954-45.353954h436.987563l-126.512369-94.362135c-20.075221-14.97711-24.210401-43.395346-9.235338-63.469543 8.903787-11.94096 22.554692-18.24248 36.390815-18.24248a45.131897 45.131897 0 0 1 27.078728 9.003048l236.807381 176.626743a45.352931 45.352931 0 0 1 18.23634 36.423561 45.363164 45.363164 0 0 1-18.34788 36.373419z m0 0"  horiz-adv-x="1024" />

    
    <glyph glyph-name="danxuanweixuanzhong" unicode="&#60161;" d="M511.602446 894.418992c-281.673218 0-509.99125-228.318032-509.99125-509.99125 0-281.671171 228.319056-509.99125 509.99125-509.99125 281.671171 0 509.99125 228.320079 509.991249 509.99125 0 281.673218-228.320079 509.99125-509.991249 509.99125z m0-941.516404c-238.520395 0-431.53334 193.006805-431.533341 431.525154 0 238.520395 193.012945 431.53334 431.533341 431.53334 238.518349 0 431.525154-193.012945 431.525153-431.53334 0-238.518349-193.006805-431.525154-431.525153-431.525154z"  horiz-adv-x="1024" />

    
    <glyph glyph-name="danxuanxuanzhong" unicode="&#60162;" d="M511.602446 894.418992c-281.673218 0-509.99125-228.318032-509.99125-509.99125 0-281.671171 228.319056-509.99125 509.99125-509.99125 281.671171 0 509.99125 228.320079 509.991249 509.99125 0 281.673218-228.320079 509.99125-509.991249 509.99125z m0-941.516404c-238.520395 0-431.53334 193.006805-431.533341 431.525154 0 238.520395 193.012945 431.53334 431.533341 431.53334 238.518349 0 431.525154-193.012945 431.525153-431.53334 0-238.518349-193.006805-431.525154-431.525153-431.525154zM511.602446 639.929904c-141.037177 0-255.502162-114.464985-255.502162-255.502162s114.464985-255.502162 255.502162-255.502162S767.104607 243.390565 767.104607 384.427742 652.639622 639.929904 511.602446 639.929904z"  horiz-adv-x="1024" />

    
    <glyph glyph-name="daochu" unicode="&#60163;" d="M943.122483-47.555853H77.880253V817.6874H629.377826v75.991742H80.324932c-43.322691 0-78.43642-35.120892-78.43642-78.438467v-862.801645c0-43.318598 35.113729-78.438467 78.43642-78.438466h862.797551c43.322691 0 78.43642 35.119869 78.43642 78.438466V501.496018h-78.43642v-549.051871z m0 0M986.479967 893.61672c19.530822 0 35.07996-15.554254 35.079959-34.55705v-209.117739c0-19.526729-15.549138-34.55705-35.079959-34.55705-19.218714-0.115634-34.908044 15.341407-35.07996 34.55705V859.05967c0.559748 19.050891 16.020882 34.284851 35.07996 34.55705zM740.274542 858.535737c0 19.526729 15.601326 35.080983 35.07689 35.080983h208.910007a34.884508 34.884508 0 0 0 31.782867-16.833387 34.884508 34.884508 0 0 0 0-35.97126 34.867112 34.867112 0 0 0-31.782867-16.832363H775.351432c-19.215644-0.115634-34.904974 15.337313-35.07689 34.556027zM536.899598 408.730241c-13.335726 13.634532-13.335726 35.423791 0 49.054229L961.9769 883.614925c13.598716 13.418614 35.459606 13.418614 49.058322 0 13.338796-13.634532 13.338796-35.423791 0-49.058322L586.481853 408.730241c-6.507204-6.703679-15.45397-10.480702-24.791639-10.480702s-18.283412 3.777023-24.790616 10.480702z"  horiz-adv-x="1024" />

    
    <glyph glyph-name="duoxuanweixuanzhong" unicode="&#60164;" d="M902.942365-124.831844H119.469464c-64.789609 0-117.522624 52.726875-117.522624 117.522624V776.163681c0 64.789609 52.733015 117.522624 117.522624 117.522624h783.472901c64.795748 0 117.522624-52.733015 117.522624-117.522624v-783.472901c0-64.795748-52.726875-117.522624-117.522624-117.522624zM119.469464 815.339936c-21.585621 0-39.176254-17.591657-39.176255-39.176255v-783.472901c0-21.620413 17.591657-39.169091 39.176255-39.169092h783.472901c21.620413 0 39.169091 17.548678 39.169091 39.169092V776.163681c0 21.585621-17.548678 39.176254-39.169091 39.176255H119.469464z"  horiz-adv-x="1024" />

    
    <glyph glyph-name="duoxuanxuanzhong" unicode="&#60165;" d="M828.668755 626.787582c-18.175965 18.041912-47.574528 17.84953-65.559135-0.367367L425.074743 284.733159 275.453051 438.486962c-17.900695 18.409279-47.25628 18.735713-65.573461 0.927115-18.361183-17.844413-18.777669-47.249117-0.927116-65.568344l182.606945-187.655938c0.092098-0.141216 0.282433-0.141216 0.367367-0.268106 0.099261-0.099261 0.141216-0.277316 0.233313-0.37453 2.921539-2.879584 6.53688-4.634554 9.969049-6.588045 1.811252-0.969071 3.247974-2.597151 5.107322-3.340072a45.939285 45.939285 0 0 1 17.526165-3.481287c5.887081 0 11.773138 1.161453 17.340947 3.38919 1.811252 0.74292 3.198855 2.229784 4.918009 3.154853 3.481288 1.947352 7.096628 3.65832 10.061147 6.579859 0.098237 0.099261 0.141216 0.284479 0.282432 0.381693 0.092098 0.141216 0.226151 0.178055 0.367367 0.277316l371.273909 375.299595c18.030655 18.185174 17.845437 47.532573-0.337691 65.567321zM902.942365-124.831844H119.469464c-64.789609 0-117.522624 52.726875-117.522624 117.522624V776.163681c0 64.789609 52.733015 117.522624 117.522624 117.522624h783.472901c64.795748 0 117.522624-52.733015 117.522624-117.522624v-783.472901c0-64.795748-52.726875-117.522624-117.522624-117.522624zM119.469464 815.339936c-21.585621 0-39.176254-17.591657-39.176255-39.176255v-783.472901c0-21.620413 17.591657-39.169091 39.176255-39.169092h783.472901c21.620413 0 39.169091 17.548678 39.169091 39.169092V776.163681c0 21.585621-17.548678 39.176254-39.169091 39.176255H119.469464z"  horiz-adv-x="1024" />

    
    <glyph glyph-name="lakuangchazhao" unicode="&#60166;" d="M988.077348-100.597907H35.918559c-17.142425 0-33.933857 17.147542-33.933857 33.938974V441.902758c0 16.980743 16.791431 33.932834 33.933857 33.932833h135.457088c16.95209 0 33.938973-17.190521 33.938974-43.177381 0-21.085224-16.98586-38.027082-33.938974-38.027082H79.562569v-418.324504h862.487489V394.631128h-89.527013c-16.98586 0-33.778314 21.375843-33.778314 38.027082 0 28.716019 15.984043 43.148729 33.778314 43.148729h135.583978c16.98586 0 33.938973-16.95209 33.938974-33.938973v-508.526899c0-16.791431-17.177218-33.938973-33.968649-33.938974M872.025215 265.192104L703.677019 433.5403c30.216185 47.483454 51.800783 107.915825 51.800783 168.348196 0 155.398256-125.183094 280.58135-280.58135 280.581349-155.399279 0-280.58135-125.183094-280.58135-280.581349s125.182071-280.58135 280.58135-280.58135c60.432371 0 120.661104 21.364587 164.029844 56.119135l4.317329-4.317329 164.030867-164.030867c17.267269-17.266245 47.482431-17.266245 64.750723-4.317329 17.266245 17.265222 17.266245 43.164079 0 60.431348zM247.178077 601.888496c0 124.20993 103.507422 227.717352 227.717352 227.717351 124.205836 0 227.713258-103.507422 227.713258-227.717351 0-124.20686-103.507422-227.714282-227.713258-227.714282-124.20993 0-227.717352 103.507422-227.717352 227.714282z"  horiz-adv-x="1024" />

    
    <glyph glyph-name="lishiguiji" unicode="&#60167;" d="M455.129246 609.409796v-338.938456h282.498003V364.614487H545.569048V609.409796h-90.439802z m56.43943 282.496979c-122.83256 0-235.568157-43.582611-323.464019-116.149347l24.263613 93.122911-83.101673 23.026436L82.77882 713.647859l-23.099091-89.053222 83.168188-22.954805 176.73419-48.668443 23.170723 89.125877-102.781898 28.331255C310.864562 737.47452 406.313447 778.951167 511.56663 778.951167c218.432894 0 395.528312-177.094394 395.528312-395.521149 0-218.432894-177.095417-395.455657-395.528312-395.455657-218.426755 0-395.375839 177.023786-395.375839 395.455657 0 11.18269 2.320858 21.718651 3.26844 32.686447l-114.192786 9.515724c-1.085728-13.94971-2.177596-27.964912-2.177595-42.202171 0-280.831037 227.653907-508.484943 508.47778-508.484943 280.831037 0 508.484943 227.653907 508.484943 508.484943 0.002047 280.82285-227.652883 508.476757-508.482897 508.476757z m0 0M62.383304 422.373982m-57.177234 0a57.177234 57.177234 0 1 1 114.354468 0 57.177234 57.177234 0 1 1-114.354468 0Z"  horiz-adv-x="1024" />

    
    <glyph glyph-name="lishishipin" unicode="&#60168;" d="M392.961348 109.735519a39.290865 39.290865 0 0 0-27.77867 11.508102 39.291888 39.291888 0 0 0-11.501962 27.77253V620.384755a39.279608 39.279608 0 0 0 62.768579 31.425733l314.245054-235.684813a39.284725 39.284725 0 0 0 0-62.851467L416.448272 117.595534a38.969547 38.969547 0 0 0-23.486924-7.860015zM1011.974617 482.801237c-7.093559 17.765619-24.445762 30.325679-44.74304 30.325679-20.297278 0-46.938032-15.364943-44.067658-44.99989l0.099261-2.148943c2.012843-44.881187 2.922563-47.935756 2.922562-81.978083 0-228.382501-185.80273-414.186254-414.18523-414.186254S97.814258 155.617499 97.814258 384c0 228.382501 185.80273 414.18523 414.18523 414.18523v0.004094c0.049119 0 0.098237-0.004093 0.14838-0.004094 26.604938 0 48.173163 21.567201 48.173162 48.17214 0 26.604938-21.567201 48.172139-48.173162 48.172139-0.049119 0-0.098237-0.00307-0.14838-0.004093v0.008186c-68.902276 0-135.76715-13.504572-198.73732-40.138162-60.798714-25.714661-115.393123-62.519915-162.265664-109.392456-46.87254-46.87254-83.677794-101.465926-109.393479-162.265664-26.634614-62.969147-40.139186-129.835044-40.139185-198.736297S14.968411 248.233873 41.602002 185.26268c25.716708-60.798714 62.521962-115.393123 109.393479-162.264641 46.87254-46.87254 101.466949-83.677794 162.266687-109.393479 62.97017-26.634614 129.835044-40.139186 198.73732-40.139186s135.76715 13.504572 198.73732 40.139186c60.799738 25.715685 115.393123 62.520939 162.266688 109.393479 46.871517 46.871517 83.676771 101.465926 109.392456 162.266688 26.634614 62.969147 40.139186 129.835044 40.139185 198.73732 0 33.484625-4.999874 84.929298-10.56052 98.79919z"  horiz-adv-x="1024" />

    
    <glyph glyph-name="lukuang" unicode="&#60169;" d="M814.433542 779.676691c0 63.62304-50.89925 114.52229-114.527406 114.52229H362.692974c-63.62304 0-114.52229-50.89925-114.52229-114.52229v-792.131095c0-63.62304 50.89925-114.52229 114.52229-114.52229h340.396667c63.62304 0 114.52229 50.89925 114.52229 114.52229V779.676691h-3.178389zM531.300067-9.269875c-63.62304 0-114.52229 50.89925-114.52229 114.52229s50.89925 114.527406 114.52229 114.527406c63.628156 0 114.527406-50.904367 114.527406-114.527406s-50.900274-114.52229-114.527406-114.52229z m0 279.948947c-63.62304 0-114.52229 50.89925-114.52229 114.522289s50.89925 114.527406 114.52229 114.527407c63.628156 0 114.527406-50.904367 114.527406-114.527407s-50.900274-114.52229-114.527406-114.522289z m0 283.128359c-63.62304 0-114.52229 50.89925-114.52229 114.522289 0 63.628156 50.89925 111.346971 114.52229 111.346971 63.628156 0 114.527406-50.904367 114.527406-114.527406-0.001023-63.622016-50.900274-111.341854-114.527406-111.341854z m0 0"  horiz-adv-x="1024" />

    
    <glyph glyph-name="quxiao" unicode="&#60170;" d="M511.602446 894.418992c-281.673218 0-509.99125-228.318032-509.99125-509.99125 0-281.671171 228.319056-509.99125 509.99125-509.99125 281.671171 0 509.99125 228.320079 509.991249 509.99125 0 281.673218-228.320079 509.99125-509.991249 509.99125z m213.161844-667.540496c17.277502-17.277502 18.827811-43.741223 3.462868-59.106166s-41.828664-13.814634-59.106166 3.462869L511.999488 328.356702 354.877985 171.235199c-17.277502-17.277502-43.741223-18.827811-59.106166-3.462869-15.365966 15.365966-13.814634 41.828664 3.462868 59.106166l157.121504 157.121504-157.122527 157.121504c-17.277502 17.277502-18.827811 43.741223-3.462869 59.106166s41.828664 13.815657 59.106166-3.462869L511.999488 439.643298l157.121504 157.121503c17.277502 17.277502 43.741223 18.827811 59.106166 3.462869s13.815657-41.828664-3.462868-59.106166L567.642786 384l157.121504-157.121504z"  horiz-adv-x="1024" />

    
    <glyph glyph-name="quxiaoxianxing" unicode="&#60171;" d="M511.602446 894.418992c-281.673218 0-509.99125-228.318032-509.99125-509.99125 0-281.671171 228.319056-509.99125 509.99125-509.99125 281.671171 0 509.99125 228.320079 509.991249 509.99125 0 281.673218-228.320079 509.99125-509.991249 509.99125z m0-941.516404c-238.520395 0-431.53334 193.006805-431.533341 431.525154 0 238.520395 193.012945 431.53334 431.533341 431.53334 238.518349 0 431.525154-193.012945 431.525153-431.53334 0-238.518349-193.006805-431.525154-431.525153-431.525154zM354.877985 171.235199c-17.277502-17.277502-43.741223-18.827811-59.106166-3.462869-15.365966 15.365966-13.815657 41.828664 3.462868 59.106166l369.887328 369.887329c17.277502 17.277502 43.741223 18.828834 59.106166 3.462868 15.365966-15.365966 13.815657-41.828664-3.462868-59.106166L354.877985 171.235199zM299.233664 541.121504c-17.277502 17.277502-18.827811 43.741223-3.462869 59.106166 15.365966 15.365966 41.828664 13.815657 59.106166-3.462869L724.76429 226.877473c17.277502-17.277502 18.827811-43.741223 3.462868-59.106166-15.365966-15.365966-41.828664-13.814634-59.106166 3.462868L299.233664 541.121504z"  horiz-adv-x="1024" />

    
    <glyph glyph-name="shanchu" unicode="&#60172;" d="M796.708855-127.031952H227.179604c-68.445882 0-124.017548 55.67502-124.017548 124.017548V758.664122H920.733567v-761.678526c0-68.341504-55.67502-124.017548-124.024712-124.017548zM193.969225 667.860023v-670.771073c0-18.307971 14.903431-33.215496 33.209356-33.215496h569.425897c18.307971 0 33.215496 14.907525 33.215496 33.215496V667.860023H193.969225z m0 0M943.406962 667.860023H80.487637c-25.122167 0-45.456285 20.330024-45.456284 45.456285 0 25.122167 20.334117 45.457308 45.456284 45.457307h863.022679c25.127284 0 45.456285-20.335141 45.456285-45.457307 0-25.12626-20.437471-45.456285-45.559639-45.456285zM625.536334 804.120406H398.359288c-25.122167 0-45.456285 20.334117-45.456284 45.456285s20.334117 45.456285 45.456284 45.456285H625.427864c25.122167 0 45.456285-20.334117 45.456285-45.456285-0.001023-25.122167-20.335141-45.456285-45.347815-45.456285zM398.359288 168.269657c-25.122167 0-45.456285 20.334117-45.456284 45.456285V486.249779c0 25.122167 20.334117 45.456285 45.456284 45.456284 25.127284 0 45.456285-20.334117 45.456285-45.456284v-272.523837c-0.001023-25.122167-20.330024-45.456285-45.456285-45.456285z m227.177046 0c-25.127284 0-45.456285 20.334117-45.456284 45.456285V486.249779c0 25.122167 20.329001 45.456285 45.456284 45.456284 25.122167 0 45.456285-20.334117 45.456285-45.456284v-272.523837c-0.109494-25.122167-20.443611-45.456285-45.456285-45.456285z m0 0"  horiz-adv-x="1024" />

    
    <glyph glyph-name="quanping" unicode="&#60173;" d="M235.888963 895.062652H31.47127c-16.938788 0-30.66337-13.724583-30.66337-30.663371V660.124851c0-17.011442 13.724583-30.736025 30.66337-30.736025 16.938788 0 30.806633 13.724583 30.806634 30.736025 0 1.753947-0.289596 3.576455-0.584308 5.257748V828.772876c0 2.845815 2.267647 5.107321 5.040806 5.107321h165.869748c1.096984-0.071631 2.194992-0.289596 3.284813-0.289595 16.938788 0 30.736025 13.724583 30.736025 30.736025 0 17.011442-13.797237 30.736025-30.736025 30.736025z m0 0M894.630049 20.440797c0-11.246135-9.268084-20.370956-20.441565-20.370956h-729.044268c-11.246135 0-20.36891 9.124821-20.36891 20.370956V749.41241c0 11.31879 9.122775 20.441565 20.36891 20.441565h729.044268c11.17348 0 20.441565-9.122775 20.441565-20.441565v-728.971613z m0 0M787.674085 895.062652h204.423833c16.932648 0 30.662347-13.724583 30.662347-30.663371V660.564873c0-0.149403 0.145309-0.294712 0.145309-0.438998 0-17.011442-13.797237-30.736025-30.80868-30.736025-17.009396 0-30.740118 13.724583-30.740118 30.736025 0 1.753947 0.294712 3.576455 0.511653 5.257747V828.772876c0 2.845815-2.188852 5.107321-5.107321 5.107321H790.960944c-1.164522-0.071631-2.117221-0.289596-3.286859-0.289595-16.932648 0-30.662347 13.724583-30.662347 30.736025 0 17.011442 13.729699 30.736025 30.662347 30.736025z m0 0M235.888963-126.891759H31.47127c-16.938788 0-30.66337 13.652951-30.66337 30.589692V108.045017c0 17.011442 13.724583 30.812773 30.66337 30.812773 16.938788 0 30.806633-13.728676 30.806634-30.812773 0-1.747807-0.289596-3.576455-0.584308-5.25263v-163.317623c0-2.845815 2.267647-5.113461 5.040806-5.113461h165.869748c1.096984 0.072655 2.116197 0.294712 3.212159 0.294712 16.938788 0 30.736025-13.724583 30.736025-30.733978 0-17.011442-13.724583-30.813796-30.663371-30.813796z m0 0M787.674085-126.891759h204.423833c16.932648 0 30.662347 13.729699 30.662347 30.589692V107.610112c0 0.145309 0.145309 0.290619 0.145309 0.434905 0 17.011442-13.797237 30.812773-30.80868 30.812773-17.009396 0-30.740118-13.728676-30.740118-30.812773 0-1.747807 0.294712-3.576455 0.511653-5.25263v-163.317623c0-2.845815-2.188852-5.113461-5.107321-5.113461H790.960944c-1.164522 0.072655-2.117221 0.294712-3.286859 0.294712-16.932648 0-30.662347-13.724583-30.662347-30.733978 0-17.011442 13.729699-30.813796 30.662347-30.813796z m0 0"  horiz-adv-x="1024" />

    
    <glyph glyph-name="shangyiji" unicode="&#60174;" d="M1.918187 379.279489l495.876788 348.727402v-697.552019L1.918187 379.279489z m1019.066641 348.727402v-697.552019l-495.876787 348.824617 495.876787 348.727402z m0 0"  horiz-adv-x="1024" />

    
    <glyph glyph-name="rili" unicode="&#60175;" d="M209.570551 673.731754h75.184353c11.30958 0 20.584827 9.241478 20.584828 20.550035V859.679793c0 11.307533-9.275247 20.550035-20.584828 20.550035h-75.184353c-11.441587 0-20.550035-9.242502-20.550035-20.550035v-165.396981c0-11.30958 9.108448-20.551058 20.550035-20.551058z m0 0M739.305471 673.731754h75.222215c11.342326 0 20.550035 9.241478 20.550035 20.550035V859.679793c0 11.307533-9.208732 20.550035-20.550035 20.550035h-75.222215c-11.337209 0-20.678972-9.242502-20.678972-20.550035v-165.396981c0-11.30958 9.340739-20.551058 20.678972-20.551058z m0 0M903.019113 801.152818h-26.40437V694.282812c0-34.18252-27.865651-62.180178-62.086033-62.180178h-75.222216c-34.18252 0-62.182224 27.993564-62.182224 62.180178V801.152818h-330.282309V694.282812c0-34.18252-27.864628-62.180178-62.086034-62.180178h-75.184353c-34.254152 0-62.153572 27.993564-62.153571 62.180178V801.152818h-26.66736c-65.908082 0-119.54877-53.602825-119.54877-119.572306v-674.034396c0-66.169025 53.640688-119.776967 119.54877-119.776967h782.26847c66.070788 0 119.779014 53.607942 119.779014 119.776967V681.581536c0 65.969481-53.708226 119.571283-119.779014 119.571282z m44.026726-793.605679c0-24.338315-19.72218-44.025703-44.027749-44.025703H120.750643c-24.110117 0-43.763736 19.687388-43.763736 44.025703V459.584466h870.059955v-452.037327z m0 0"  horiz-adv-x="1024" />

    
    <glyph glyph-name="touxiang" unicode="&#60176;" d="M506.653737 311.440427c110.181425 0 199.834304 88.310302 199.830211 196.898439 0 108.583021-89.648786 196.901509-199.830211 196.901509-110.180402 0-199.830211-88.347141-199.830211-196.901509 0-108.555391 89.649809-196.898439 199.830211-196.898439zM589.002256 292.48061h-149.730162c-139.13792 0-252.309446-111.432928-252.309447-248.442372v-14.747889c0-21.523199 152.83999-128.529305 271.0206-128.529305l132.785236 3.605108c95.467305 2.823302 223.051075 92.225471 250.567779 124.924197v14.747889c-0.00307 136.980791-113.193015 248.442372-252.334006 248.442372zM511.156284-120.747829c-68.13275 0-134.236284 13.348006-196.476837 39.673581-60.106959 25.423019-114.085338 61.814858-160.433945 108.163466-46.348608 46.348608-82.740446 100.326986-108.164489 160.433945-26.325575 62.240553-39.673581 128.344087-39.673581 196.476837s13.348006 134.236284 39.673581 196.476837c25.423019 60.106959 61.814858 114.085338 108.164489 160.433945 46.349631 46.348608 100.326986 82.740446 160.433945 108.164489C376.918977 875.400846 443.023534 888.748852 511.156284 888.748852S645.392568 875.400846 707.633121 849.075271c60.106959-25.423019 114.085338-61.814858 160.433946-108.164489 46.348608-46.349631 82.741469-100.326986 108.163465-160.433945 26.325575-62.23953 39.673581-128.344087 39.673581-196.476837s-13.348006-134.236284-39.673581-196.476837c-25.423019-60.106959-61.814858-114.085338-108.163465-160.433945-46.348608-46.348608-100.326986-82.741469-160.433946-108.163466-62.23953-26.325575-128.344087-39.673581-196.476837-39.673581z m0 972.245266c-257.779018 0-467.497437-209.718419-467.497437-467.497437s209.718419-467.497437 467.497437-467.497437 467.497437 209.718419 467.497437 467.497437-209.718419 467.497437-467.497437 467.497437z"  horiz-adv-x="1024" />

    
    <glyph glyph-name="xiangxixinxi" unicode="&#60177;" d="M1020.141624 713.644789c0-20.723997-18.856463-37.523615-42.117237-37.523615H325.341275c-23.260773 0-42.117237 16.799618-42.117237 37.523615V785.556609c0 20.723997 18.856463 37.523615 42.117237 37.523615h652.683112c23.260773 0 42.117237-16.799618 42.117237-37.523615v-71.91182zM1020.141624 348.04409c0-20.723997-18.856463-37.523615-42.117237-37.523615H325.341275c-23.260773 0-42.117237 16.799618-42.117237 37.523615v71.91182c0 20.723997 18.856463 37.523615 42.117237 37.523615h652.683112c23.260773 0 42.117237-16.799618 42.117237-37.523615v-71.91182zM1020.141624-17.556609c0-20.723997-18.856463-37.523615-42.117237-37.523615H325.341275c-23.260773 0-42.117237 16.799618-42.117237 37.523615v71.91182c0 20.723997 18.856463 37.523615 42.117237 37.523615h652.683112c23.260773 0 42.117237-16.799618 42.117237-37.523615v-71.91182zM150.816402 705.512574c0-16.232706-13.158694-29.391401-29.3914-29.3914H33.248753c-16.232706 0-29.391401 13.158694-29.3914 29.3914V793.6878c0 16.232706 13.158694 29.391401 29.3914 29.3914h88.175226c16.232706 0 29.391401-13.158694 29.3914-29.3914v-88.175226zM150.816402 339.912899c0-16.232706-13.158694-29.391401-29.3914-29.391401H33.248753c-16.232706 0-29.391401 13.158694-29.3914 29.391401v88.175225c0 16.232706 13.158694 29.391401 29.3914 29.391401h88.175226c16.232706 0 29.391401-13.158694 29.3914-29.391401v-88.175225zM150.816402-25.6878c0-16.232706-13.158694-29.391401-29.3914-29.3914H33.248753c-16.232706 0-29.391401 13.158694-29.3914 29.3914v88.175226c0 16.232706 13.158694 29.391401 29.3914 29.3914h88.175226c16.232706 0 29.391401-13.158694 29.3914-29.3914v-88.175226z"  horiz-adv-x="1024" />

    
    <glyph glyph-name="shenfenzheng" unicode="&#60178;" d="M900.648113 761.800555h-777.395486c-64.206324 0-116.285446-52.078099-116.285447-116.285446v-523.131525c0-64.207347 52.079122-116.183116 116.285447-116.183116h777.4927c64.207347 0 116.285446 52.074006 116.285446 116.183116V645.514085c-0.097214 64.208371-52.175313 116.28647-116.38266 116.28647zM653.782655 531.007145h161.454182c12.822027 0 24.657586-17.454534 24.657587-30.27656s-11.835559-30.283724-24.657587-30.283724H653.782655c-12.822027 0-24.657586 17.461697-24.657586 30.283724s11.835559 30.27656 24.657586 30.27656zM653.782655 401.607006h161.454182c12.822027 0 24.657586-17.461697 24.657587-30.283723 0-12.822027-11.835559-30.27656-24.657587-30.276561H653.782655c-12.822027 0-24.657586 17.454534-24.657586 30.276561 0 12.82305 11.835559 30.283724 24.657586 30.283723zM126.705262 176.629046c-12.627598 2.466168-20.913309 14.598486-18.448164 27.226084 14.995529 78.307484 73.479525 138.672316 147.256832 159.877267-38.270629 20.512173-64.699558 60.45693-64.699558 106.916055 0 67.165726 54.636365 121.709993 121.704876 121.709993s121.708969-54.642504 121.708969-121.709993c0-46.458101-26.428929-86.403882-64.699557-106.916055 73.971735-21.204951 132.461871-81.862449 147.256831-160.472831 2.367931-12.621459-5.91778-24.755824-18.545378-27.117614-1.479701-0.298805-2.958378-0.396019-4.340865-0.39602M892.860752 211.64863H653.782655c-12.822027 0-24.657586 17.454534-24.657586 30.276561 0 12.822027 11.835559 30.27656 24.657586 30.27656h239.078097c12.822027 0 24.657586-17.454534 24.657587-30.27656 0-12.822027-11.835559-30.27656-24.657587-30.276561z"  horiz-adv-x="1024" />

    
    <glyph glyph-name="jiedadianhuabaojing" unicode="&#60179;" d="M1019.623831 384c0-280.353153-227.27119-507.624343-507.624343-507.624343S4.375146 103.646847 4.375146 384 231.646336 891.624343 511.999488 891.624343s507.624343-227.27119 507.624343-507.624343zM511.999488 833.610044c-248.312412 0-449.610044-201.297632-449.610044-449.610044s201.297632-449.610044 449.610044-449.610044 449.610044 201.297632 449.610045 449.610044-201.297632 449.610044-449.610045 449.610044zM764.782725 520.432299c-10.760065 0-19.465331-8.707312-19.46533-19.468401v-194.674794c0-10.761088 8.705266-19.4684 19.46533-19.4684 10.761088 0 19.4684 8.707312 19.468401 19.4684V500.963898c0 10.761088-8.707312 19.4684-19.468401 19.468401z m0 0M706.381617 481.499591c-10.761088 0-19.4684-8.707312-19.4684-19.4684v-116.805286c0-10.761088 8.707312-19.4684 19.4684-19.468401 10.761088 0 19.4684 8.707312 19.468401 19.468401V462.031191c0 10.761088-8.707312 19.4684-19.468401 19.4684z m0 0M258.626827 520.432299c-10.761088 0-19.4684-8.707312-19.4684-19.468401v-194.674794c0-10.761088 8.707312-19.4684 19.4684-19.4684s19.4684 8.707312 19.4684 19.4684V500.963898c0 10.761088-8.707312 19.4684-19.4684 19.468401z m0 0M628.512109 656.705985H394.900513c-21.521153 0-38.936801-17.433044-38.9368-38.936801v-467.222167c0-21.500687 17.414625-38.933731 38.9368-38.933731h233.611596c21.482267 0 38.932708 17.433044 38.932707 38.933731V617.770208c0 21.503756-17.450441 38.935778-38.932707 38.935777z m-146.008399-29.202089h58.401109a9.728572 9.728572 0 0 0 9.733688-9.733688 9.730619 9.730619 0 0 0-9.733688-9.733689h-58.401109a9.729595 9.729595 0 0 0-9.733688 9.733689 9.728572 9.728572 0 0 0 9.733688 9.733688z m29.203113-496.421186c-16.162098 0-29.202089 13.039991-29.202089 29.199019 0 16.162098 13.039991 29.202089 29.202089 29.202089 16.159028 0 29.199019-13.039991 29.199019-29.202089 0-16.160051-13.039991-29.199019-29.199019-29.199019z m126.536928 77.868485H385.166825V578.836477h253.076926v-369.885282z m0 0M317.027935 481.499591c-10.761088 0-19.467377-8.707312-19.467377-19.4684v-116.805286c0-10.761088 8.706289-19.4684 19.467377-19.468401 10.761088 0 19.4684 8.707312 19.4684 19.468401V462.031191c0 10.761088-8.707312 19.4684-19.4684 19.4684z m0 0"  horiz-adv-x="1024" />

    
    <glyph glyph-name="jiashiyuanyichangbaojing" unicode="&#60180;" d="M1019.623831 384c0-280.353153-227.27119-507.624343-507.624343-507.624343S4.375146 103.646847 4.375146 384 231.646336 891.624343 511.999488 891.624343s507.624343-227.27119 507.624343-507.624343zM511.999488 833.610044c-248.312412 0-449.610044-201.297632-449.610044-449.610044s201.297632-449.610044 449.610044-449.610044 449.610044 201.297632 449.610045 449.610044-201.297632 449.610044-449.610045 449.610044zM347.058902 118.072395a83.029018 83.029018 0 0 0-0.063445 3.460821c0 53.702086 52.706409 97.233532 117.701702 97.233532 64.998363 0 117.705795-43.532469 117.705796-97.233532 0-1.14508-0.023536-2.314719-0.067538-3.460821H347.058902zM552.260447 411.356045L444.144054 252.000664c-76.549443-9.584286-135.227868-64.346517-135.227867-130.468471 0-1.14508 0-2.314719 0.042979-3.460821H236.540809c-20.771069 32.410154-29.967522 59.024302-27.673269 79.859839 3.460822 31.265074 86.48063 177.11793 121.077589 194.468086 34.57547 17.35425 59.459207 24.298406 138.215922 24.298406 38.381146 0.001023 63.956637-1.642406 84.099396-5.341658zM468.160028 437.555753c-66.921155 0-121.165594 54.4184-121.165594 121.55445 0 67.096141 54.243415 121.511471 121.165594 121.511472S589.325621 626.206344 589.325621 559.088714c0-67.13912-54.244438-121.55445-121.165593-121.55445v0.021489zM491.486292 249.37179c0 89.466638 72.526827 161.994488 161.994488 161.994488s161.994488-72.526827 161.994488-161.994488-72.526827-161.994488-161.994488-161.994488-161.994488 72.52785-161.994488 161.994488z m184.568623 90.437755c0 7.842619-6.357801 14.199397-14.199397 14.199397H645.106042c-7.842619 0-14.199397-6.357801-14.199397-14.199397v-120.120798c0-7.842619 6.357801-14.199397 14.199397-14.199397h16.748453c7.842619 0 14.199397 6.357801 14.199396 14.199397V339.809545z m2.508123-160.247704c0 8.470929-6.866385 15.337313-15.337313 15.337313h-19.48989c-8.470929 0-15.337313-6.866385-15.337313-15.337313v-19.48989c0-8.470929 6.866385-15.337313 15.337313-15.337313h19.48989c8.470929 0 15.337313 6.866385 15.337313 15.337313v19.48989z"  horiz-adv-x="1024" />

    
    <glyph glyph-name="fenshenbaojing" unicode="&#60181;" d="M1019.623831 384c0-280.353153-227.27119-507.624343-507.624343-507.624343S4.375146 103.646847 4.375146 384 231.646336 891.624343 511.999488 891.624343s507.624343-227.27119 507.624343-507.624343zM511.999488 833.610044c-248.312412 0-449.610044-201.297632-449.610044-449.610044s201.297632-449.610044 449.610044-449.610044 449.610044 201.297632 449.610045 449.610044-201.297632 449.610044-449.610045 449.610044zM347.058902 118.072395a83.029018 83.029018 0 0 0-0.063445 3.460821c0 53.702086 52.706409 97.233532 117.701702 97.233532 64.998363 0 117.705795-43.532469 117.705796-97.233532 0-1.14508-0.023536-2.314719-0.067538-3.460821H347.058902zM552.260447 411.356045L444.144054 252.000664c-76.549443-9.584286-135.227868-64.346517-135.227867-130.468471 0-1.14508 0-2.314719 0.042979-3.460821H236.540809c-20.771069 32.410154-29.967522 59.024302-27.673269 79.859839 3.460822 31.265074 86.48063 177.11793 121.077589 194.468086 34.57547 17.35425 59.459207 24.298406 138.215922 24.298406 38.381146 0.001023 63.956637-1.642406 84.099396-5.341658zM468.160028 437.555753c-66.921155 0-121.165594 54.4184-121.165594 121.55445 0 67.096141 54.243415 121.511471 121.165594 121.511472S589.325621 626.206344 589.325621 559.088714c0-67.13912-54.244438-121.55445-121.165593-121.55445v0.021489zM491.486292 249.37179c0 89.466638 72.526827 161.994488 161.994488 161.994488s161.994488-72.526827 161.994488-161.994488-72.526827-161.994488-161.994488-161.994488-161.994488 72.52785-161.994488 161.994488z m191.72972-4.672416c0.557702-16.991999-0.292666-34.275641-2.549056-51.825343-1.140986-5.097088-3.690042-8.496511-7.646144-10.195199-3.3984-1.140986-11.045567-1.420349-22.939455-0.850368 2.827395-4.539386 4.527107-9.066493 5.098111-13.593599a337.783143 337.783143 0 0 0 1.698689-9.344832c0.557702-2.827395 0.850367-4.527107 0.850367-5.098112 34.540677-1.127683 51.824319 7.088442 51.824319 24.638143 1.698688 25.488511 2.827395 50.684356 3.399423 75.614142 1.127683-1.140986 3.105734-2.840698 5.947456-5.097088 7.353478-5.098111 12.744255-8.788154 16.142655-11.045567l1.698689 2.549055c1.698688 3.956102 3.3984 7.076162 5.098111 9.344833 1.698688 2.25639 3.956102 5.098111 6.795777 8.496511 3.399423 3.956102 5.098111 6.225795 5.098111 6.7968-39.081087 20.948101-60.891835 48.425919-65.418942 82.410941-4.54041-0.571005-9.345856-1.420349-14.442944-2.549056-8.496511-2.270716-12.464893-3.690042-11.894911-4.247744 10.196223-31.156604 21.797445-54.94438 34.834366-71.365374h-89.207741c13.022595 16.991999 24.638143 35.391045 34.833343 55.223742 1.128707 2.25639 1.978051 3.676739 2.549056 4.247744 0 0.557702 0.278339 1.127683 0.849344 1.698689 1.699712 2.25639 1.978051 4.247744 0.850368 5.947455a624.435769 624.435769 0 0 0-30.585599 9.345856l-1.698689-4.247744c-13.036921-40.22412-33.426297-70.808696-61.171198-91.756797l2.549056-1.698688a139.977032 139.977032 0 0 0 9.345856-6.7968l7.646144-7.646144 2.549055-2.549056 5.097088 5.098112c7.924483 7.354502 13.301957 13.022595 16.142656 16.991999v-8.496511h25.488511c-1.698688-23.232121-6.51846-39.081087-14.442944-47.577599-7.938809-9.637498-23.509437-17.841344-46.727231-24.638143l2.548032-1.698688c3.399423-3.399423 6.226818-6.505158 8.496512-9.345856 1.128707-1.127683 2.25639-2.826372 3.399423-5.097088 2.826372-3.3984 4.805446-5.098111 5.947456-5.098111 47.006594 15.293311 70.51603 46.435589 70.51603 93.455485h31.43085z"  horiz-adv-x="1024" />

    
    <glyph glyph-name="daolubiaoshichaoxianbaojing" unicode="&#60182;" d="M1019.623831 384c0-280.353153-227.27119-507.624343-507.624343-507.624343S4.375146 103.646847 4.375146 384 231.646336 891.624343 511.999488 891.624343s507.624343-227.27119 507.624343-507.624343zM511.999488 833.610044c-248.312412 0-449.610044-201.297632-449.610044-449.610044s201.297632-449.610044 449.610044-449.610044 449.610044 201.297632 449.610045 449.610044-201.297632 449.610044-449.610045 449.610044zM734.729246 149.456173c-31.270191 0-59.419298 25.01779-59.419298 59.417251 0 31.270191 25.01779 59.414181 59.419298 59.414181 31.273261 0 59.417251-25.012673 59.417251-59.414181 0-31.273261-28.14399-59.417251-59.417251-59.417251zM762.873236 299.562912h-265.814018a28.028357 28.028357 0 0 0-28.143991 28.143991v87.562265c0 15.637142 12.506848 28.149107 28.143991 28.149106h265.814018a28.033473 28.033473 0 0 0 28.149107-28.149106v-87.562265c3.124154-15.632025-12.512988-28.14399-28.149107-28.143991zM587.74666 268.288628c53.162804 0 62.543452-53.16178 59.419297-59.414181h-118.836548c-56.289004 0-62.545498 59.414181-59.414182 59.414181h118.831433zM762.873236 474.688465h-265.814018a28.028357 28.028357 0 0 0-28.143991 28.143991v87.567381a28.028357 28.028357 0 0 0 28.143991 28.14399h265.814018a28.033473 28.033473 0 0 0 28.149107-28.14399v-87.567381c3.124154-15.633049-12.512988-28.14399-28.149107-28.143991zM409.49593 208.874447c0-31.273261-25.01779-59.417251-59.417251-59.417251-31.275307 0-59.419298 25.01779-59.419298 59.417251 0 31.270191 25.01779 59.414181 59.419298 59.414181 34.399461 0 59.417251-25.013697 59.417251-59.414181zM409.49593 299.562912h-59.417251c-46.912449 0-84.437088-34.399461-87.563288-81.306794-18.762319 9.381671-31.275307 28.14399-31.275308 50.03251v59.419298c0 6.255471-3.125177 25.01779 0 28.149107 0 9.380648 0 12.506848 3.131317 18.762319l56.287981 106.325607c3.1262 9.381671 9.381671 15.637142 18.762319 18.763343h96.944959c15.637142 0 28.149107-12.507872 28.149107-28.145014V324.582749c6.250354-12.507872-9.386788-25.019837-25.019836-25.019837z m-28.148084 146.98054h-37.524638l-31.270191-59.419298-18.767436-34.399461c3.12927-15.637142 12.511965-25.01779 28.149107-25.01779h59.413158v118.836549z"  horiz-adv-x="1024" />

    
    <glyph glyph-name="pilaojiashibaojing" unicode="&#60183;" d="M1019.623831 384c0-280.353153-227.27119-507.624343-507.624343-507.624343S4.375146 103.646847 4.375146 384 231.646336 891.624343 511.999488 891.624343s507.624343-227.27119 507.624343-507.624343zM511.999488 833.610044c-248.312412 0-449.610044-201.297632-449.610044-449.610044s201.297632-449.610044 449.610044-449.610044 449.610044 201.297632 449.610045 449.610044-201.297632 449.610044-449.610045 449.610044zM375.981628 283.336346a3.834328 3.834328 0 0 0-2.638083-4.737908l-51.014884-14.524808a3.834328 3.834328 0 0 0-4.737908 2.638083l-43.22343 151.814638a3.834328 3.834328 0 0 0 2.638083 4.737908l51.014884 14.524808a3.834328 3.834328 0 0 0 4.737908-2.638083l43.22343-151.814638zM440.52462 481.618295m-69.01791 0a69.01791 69.01791 0 1 1 138.03582 0 69.01791 69.01791 0 1 1-138.03582 0ZM492.607836 523.157363s90.746794 20.449751 152.415318-41.539068c59.282175-59.589167 65.823148-126.533858 65.823148-237.730403-0.639566-1.278109-218.558761 13.420661-224.309742 8.946766s8.946766-172.545798 7.030114-177.019693c-1.917676-4.473895-107.042945 22.527063-108.321055 23.165606-1.278109 0.639566 13.899568 59.911508 13.899569 59.911508l29.597085-6.955412s-6.749728 85.879949-2.40477 131.587967c1.393743 14.656815 15.732309 34.360576 49.019437 32.479739 48.594765-2.746554 147.296741-6.999414 171.264619-7.891737 1.917676-0.071631 1.597381 53.042053-23.105231 101.204983-24.025183 46.841841-64.501036 54.56064-65.404616 51.848878-0.639566-1.917676-3.195785-86.592171-59.640332-119.730918-52.996005-31.112602-122.761951 14.258749-144.858202 33.456996-19.490913 16.934694-61.506842 52.348252-61.029981 53.361325 1.278109 2.715855 42.657542 44.73383 45.054125 44.254923 2.667759-0.533143 66.197678-71.584362 115.253954-80.503499 26.457582-4.810562 38.439474 40.243563 36.042891 43.757597-6.792707 9.965979 3.673669 87.394443 3.673669 87.394442zM492.534158 592.372771l31.875988 42.615587h-29.795607v10.740622h46.425356v-10.740622l-31.528064-42.615587h32.220842v-10.740622h-49.198515v10.740622zM588.762803 608.61878l31.875988 42.615587h-29.795607v10.740622h46.425356v-10.740622l-31.528064-42.615587h32.220842v-10.740621H588.762803v10.740621zM682.152796 619.344053l43.813879 58.577116h-40.956808v14.763239h63.815421v-14.763239l-43.33804-58.577116h44.290739v-14.763239h-67.626214v14.763239z"  horiz-adv-x="1024" />

    
    <glyph glyph-name="hangrenpengzhuangbaojing" unicode="&#60184;" d="M1019.623831 384c0-280.353153-227.27119-507.624343-507.624343-507.624343S4.375146 103.646847 4.375146 384 231.646336 891.624343 511.999488 891.624343s507.624343-227.27119 507.624343-507.624343zM511.999488 833.610044c-248.312412 0-449.610044-201.297632-449.610044-449.610044s201.297632-449.610044 449.610044-449.610044 449.610044 201.297632 449.610045 449.610044-201.297632 449.610044-449.610045 449.610044zM529.294386 525.579529c-12.192693 0-23.720238 2.381234-34.581609 7.144724-10.859325 4.762467-20.293185 11.146874-28.294417 19.148106-8.000208 8.003278-14.384615 17.435091-19.148105 28.294416-4.762467 10.861372-7.144724 22.388916-7.144724 34.58161 0 12.196787 2.382257 23.724331 7.144724 34.582633 4.762467 10.861372 11.146874 20.292162 19.148105 28.296463 8.001231 8.001231 17.435091 14.384615 28.294417 19.149128 10.861372 4.762467 22.388916 7.143701 34.581609 7.143701 12.196787 0 23.724331-2.381234 34.582633-7.143701 10.861372-4.76349 20.293185-11.146874 28.297487-19.149128 8.000208-8.004301 14.289448-17.435091 18.862603-28.296463 4.573155-10.858302 6.859221-22.385846 6.859221-34.582633 0-12.192693-2.286066-23.720238-6.859221-34.58161-4.573155-10.859325-10.862395-20.290115-18.862603-28.294416-8.004301-8.001231-17.436114-14.384615-28.297487-19.148106-10.858302-4.762467-22.385846-7.144724-34.582633-7.144724z m126.897132-80.025615c10.29139-7.621585 18.767436-16.48137 25.436322-26.581401 6.668886-10.097986 10.005888-20.290115 10.005888-30.580483v-56.587809c0-6.478552-3.716648-11.432377-11.146874-14.863523-7.430226-3.428076-15.624862-5.14416-24.579815-5.14416-8.955976 0-17.146519 1.620917-24.576745 4.858658-7.433296 3.237741-11.146874 8.480138-11.146874 15.72003v24.00574c0 5.718235-1.715061 10.005888-5.147231 12.862959-3.428076 2.857071-6.856152 5.239328-10.287297 7.144723-3.811816 1.906419-8.194636 1.046842-13.148461-2.571568-4.952802-3.622504-7.430226-9.81146-7.430226-18.577101v-150.906965c0-9.146311 3.047406-17.528212 9.14631-25.151843 6.098905-7.620561 13.529131-14.670118 22.293749-21.148669 7.620561-5.334495 14.099113-10.667967 19.433608-16.005532l18.862603-18.862603c2.286066-2.286066 3.145643-5.809309 2.571569-10.57587-0.569982-4.762467-2.187829-9.81146-4.857635-15.145955-2.667759-5.334495-6.000668-10.671037-10.002818-16.005532-4.001127-5.334495-8.480138-9.526981-13.43294-12.574387-4.953825-3.050476-10.002818-4.573155-15.145955-4.573155-5.146207 0-10.004865 2.476401-14.57802 7.430226a5340.555232 5340.555232 0 0 1-16.576537 17.432021 2758.418049 2758.418049 0 0 0-11.146875 11.717879 159.922293 159.922293 0 0 1-10.002818 9.720386c-3.431146 3.047406-7.620561 7.238868-12.577456 12.573363-9.906627 9.907651-18.383696 22.580275-25.436323 38.013779-7.049556 15.431457-10.5728 30.770817-10.572799 46.01501v46.299489c-4.573155-5.717212-8.480138-10.290367-11.71788-13.718443-3.240811-3.431146-6.954389-9.145287-11.146874-17.149589-1.52575-3.047406-3.047406-7.049556-4.573155-12.002358a300.279994 300.279994 0 0 1-4.287653-15.434528 158.495804 158.495804 0 0 1-3.142574-16.005532c-0.763386-5.334495-1.14508-9.906627-1.145079-13.718443v-47.441498c0-7.239891-3.713578-12.672624-11.146875-16.291035-7.430226-3.621481-15.621792-5.337565-24.576745-5.14416-8.955976 0.190335-17.150612 2.286066-24.580838 6.285146-7.430226 4.002151-11.146874 10.005888-11.146874 18.006096v41.727357c0 14.863523 2.286066 28.007891 6.859221 39.440268s9.717316 23.629163 15.434528 36.583196c7.620561 17.531282 13.242606 31.630395 16.862039 42.301432 3.621481 10.667967 6.383384 18.098193 8.289804 22.290679 3.807722 8.765641 5.714142 16.576537 5.714141 23.435758v18.292622c-4.192485-2.667759-7.715729-5.14416-10.572799-7.430226-2.861164-2.287089-6.764054-6.478552-11.71788-12.574387-4.956895-5.718235-10.004865-9.431813-15.149024-11.146874-5.14416-1.715061-13.243629-2.571568-24.292266-2.571569h-37.157272c-9.146311 0-15.907295 3.713578-20.289092 11.143805-4.383844 7.433296-6.479575 15.529695-6.288216 24.295335 0.190335 8.765641 2.571568 16.86204 7.144724 24.295336 4.573155 7.430226 11.242042 11.143805 20.007682 11.143805h34.297131c4.573155 0 8.28571 0.573051 11.143804 1.715061 2.861164 1.14508 5.526877 2.857071 8.004302 5.14416 2.476401 2.286066 5.14416 4.956895 8.000207 8.004301 2.861164 3.047406 6.383384 6.478552 10.57587 10.287297 5.334495 4.573155 10.766205 11.337209 16.291035 20.293186a556.64378 556.64378 0 0 1 15.719006 27.151383c5.715165 10.671037 11.242042 22.100344 16.576537 34.29713 8.001231-0.38067 15.434527-0.76441 22.293749-1.145079 6.095835-0.38067 12.288884-0.665149 18.577101-0.855484 6.285147-0.191358 11.526521-0.285502 15.719006-0.285503 4.189416 0 8.952906 0.095167 14.290471 0.285503a378.896516 378.896516 0 0 1 15.431458 0.855484c5.717212 0.38067 11.621688 0.76441 17.720593 1.145079 10.29139-6.479575 20.198018-12.387122 29.723975-17.721616a797.593504 797.593504 0 0 1 24.006764-14.290471c8.004301-4.571109 14.103206-8.383948 18.291598-11.430331z m0 0"  horiz-adv-x="1024" />

    
    <glyph glyph-name="pinfanbiandaobaojing" unicode="&#60185;" d="M1019.623831 384c0-280.353153-227.27119-507.624343-507.624343-507.624343S4.375146 103.646847 4.375146 384 231.646336 891.624343 511.999488 891.624343s507.624343-227.27119 507.624343-507.624343zM511.999488 833.610044c-248.312412 0-449.610044-201.297632-449.610044-449.610044s201.297632-449.610044 449.610044-449.610044 449.610044 201.297632 449.610045 449.610044-201.297632 449.610044-449.610045 449.610044zM488.137011 324.770014c21.831214 0 43.719734 0 65.557088-0.040932 1.169639-12.453636 2.387373-26.064632 3.716649-40.869827l4.885263-53.772694h-86.440721l6.967692 53.772694 5.314029 40.910759z m-88.715531 93.667309V546.215522l0.093121 1.041726 0.058329 3.445472c-0.11768 5.984295-1.058099 10.299577-3.004427 12.529361-1.946328 2.257413-5.966898 3.586688-12.417821 3.892656-1.287319 0.076748-2.445702 0.076748-3.461845 0.076748l-0.387833-0.135076h-31.783891v-32.69054l-46.131666 29.073153-46.12962 29.087478 46.12962 29.073153 46.131666 29.091572v-31.072693h31.783891v-0.118704c2.097778 0.041956 4.021593 0.041956 5.721305-0.040932 19.924795-0.900509 34.899858-8.043187 45.48903-20.289092 10.571776-12.283768 15.657608-28.474518 15.963577-47.648206 0.040932-1.851161 0.016373-3.621481-0.01842-5.296633h0.058329v-127.780245l-48.093345-0.017397z m347.97118 249.801323l-26.64587-112.627127-22.564925 24.159236-32.824593-35.846416c-5.892197-7.549953-10.606569-13.993712-13.552668-19.732413a30.562063 30.562063 0 0 1-3.622503-12.804631h0.101307v-91.122347h-48.117904V511.387295l0.082888 0.422626a82.724073 82.724073 0 0 0 9.700942 37.774325c5.197372 10.125615 11.917424 19.426445 20.100804 29.803793l1.211595 1.557472 32.632211 35.635615-19.09694 20.50808 51.269687 15.593139 51.325969 15.556301z m-229.205239 14.862499l26.629497-50.362014 26.64587-50.370201h-28.939099v-26.700105c10.190083-6.02625 18.021445-14.43885 23.353894-24.01188 5.54939-9.953699 8.396227-21.158902 8.396227-32.437784a65.953108 65.953108 0 0 0-8.432043-32.611745 62.805418 62.805418 0 0 0-23.277146-23.48897v-23.91262h-48.110741V482.42773l18.885116 4.527107c6.083555 1.464351 9.894348 4.174066 11.7056 7.371897a9.636474 9.636474 0 0 1-0.111541 10.031471c-1.946328 3.445472-5.798053 6.390547-11.689226 7.853875l-18.789949 4.638647v65.516156h-29.497824l26.62745 50.370201 26.603915 50.364061zM415.825079 387.092431l-43.360554-92.031043-99.034551-210.162533h183.634344l10.622942 82.113159h100.345406c2.199085-24.393573 4.715395-51.809993 7.490601-82.113159h192.217837L673.441391 295.061388c-16.880459 37.641295-30.321586 67.673286-41.274032 92.031043h-84.195588l2.809999-30.495548h-58.56586c1.446955 10.970866 2.735297 21.118993 3.944845 30.495548h-80.335676z m0 0"  horiz-adv-x="1024" />

    
    <glyph glyph-name="chedaopianlibaojing" unicode="&#60186;" d="M290.029024 31.289889h-69.1141l22.023596 238.980883h61.087287zM271.050788 546.012907h46.257533l-11.880585-194.163141h-51.873438zM290.594913 735.263156h35.817763L318.098313 603.584114h-39.153741zM734.080469 31.25919l-14.386661 239.011582h61.285808l22.104437-238.980883zM752.66678 546.018024l-46.586015-0.005117 12.297071-194.163141h51.880601zM733.080699 735.263156h-35.905768l8.860809-130.571825 38.636972-1.252527zM1019.623831 383.261173c0-280.353153-227.27119-507.624343-507.624343-507.624343S4.375146 102.90802 4.375146 383.261173 231.646336 890.885516 511.999488 890.885516s507.624343-227.27119 507.624343-507.624343zM511.999488 832.871217c-248.312412 0-449.610044-201.297632-449.610044-449.610044s201.297632-449.610044 449.610044-449.610044 449.610044 201.297632 449.610045 449.610044-201.297632 449.610044-449.610045 449.610044z"  horiz-adv-x="1024" />

    
    <glyph glyph-name="qianxiangpengzhuangbaojing" unicode="&#60187;" d="M1019.623831 383.261173c0-280.353153-227.27119-507.624343-507.624343-507.624343S4.375146 102.90802 4.375146 383.261173 231.646336 890.885516 511.999488 890.885516s507.624343-227.27119 507.624343-507.624343zM511.999488 832.871217c-248.312412 0-449.610044-201.297632-449.610044-449.610044s201.297632-449.610044 449.610044-449.610044 449.610044 201.297632 449.610045 449.610044-201.297632 449.610044-449.610045 449.610044zM673.178401 379.897565l-322.259588 0.806366c-11.078313 0.027629-20.160155-8.742105-20.186761-19.47761v-151.901619l26.564005 78.423117s12.552897 30.878265 75.493392 34.127262h157.740604c65.068971-3.501754 75.461669-34.945907 75.461669-34.945907l27.275203-80.5782V360.319671c0.027629 10.734482-9.012258 19.550265-20.088524 19.577894zM620.284727 304.325379c-12.688997 4.295839-71.285556 9.045003-108.414175 9.413394-37.161365-0.182149-92.421946-3.604084-108.509343-8.881274-7.252171-2.379187-31.008224-7.341199-35.482119-28.848025l-20.772093-119.18652-0.337691-135.037533 27.515681-0.068561-0.064469-25.7822c-0.078795-31.400151 45.48903-31.514761 45.567826-0.113587l0.064468 25.790386 182.557826-0.456394-0.064469-25.790386c-0.078795-31.400151 45.505403-31.514761 45.584198-0.113587l0.064469 25.790386 27.499307-0.068562 0.337691 135.020137-20.183691 119.28885c-4.383844 21.529339-29.879518 27.187199-35.363416 29.043476zM376.05633 160.686958l12.641925 86.458118c1.725294 10.511401 5.427616 17.419741 19.511379 17.384949l207.03224-0.517793c14.025435-0.034792 17.709337-6.962575 19.382443-17.482163l12.210089-86.512353c1.12666-8.300037-1.347694-16.517185-13.161764-16.487509l-244.561995 0.611937c-11.797697 0.029676-14.246469 8.259104-13.06148 16.554024l0.007163-0.00921z m50.000787-82.989109c-0.01228-4.965082-4.151553-8.973372-9.257851-8.961093l-37.395702 0.093121c-5.124717 0.013303-9.251711 4.042059-9.239431 9.007142l0.038885 15.382338c0.01228 4.957919 4.15974 8.958022 9.284457 8.94472l37.395702-0.093121c5.107321-0.01228 9.225105-4.044106 9.212826-8.991792l-0.038886-15.381315z m226.264257-0.566912c-0.01228-4.965082-4.149507-8.973372-9.266038-8.961092l-37.412074 0.093121c-5.124717 0.013303-9.251711 4.042059-9.239432 9.007141l0.038886 15.382339c0.01228 4.957919 4.15974 8.958022 9.284457 8.944719l37.412075-0.093121c5.109368-0.013303 9.233292-4.044106 9.221012-8.991791l-0.038886-15.381316zM610.446661 774.891711l-257.461793 0.644683c-8.850575 0.022513-16.10684-6.985088-16.128329-15.560394v-121.357975l21.223371 62.653969s10.028401 24.668843 60.313667 27.265993h126.023228c51.986001-2.797719 60.289108-27.918863 60.289108-27.918863l21.791306-64.376193V759.250476c0.020466 8.575306-7.202029 15.618723-16.050558 15.641235zM568.188208 714.514599c-10.137895 3.432169-56.952106 7.226588-86.614683 7.520277-29.689183-0.146333-73.838705-2.879584-86.690408-7.095605-5.79396-1.90028-24.77322-5.864568-28.347628-23.047925l-16.594957-95.220689-0.270153-107.885126 21.982664-0.055258-0.051165-20.598131c-0.062422-25.086351 36.34272-25.177426 36.405141-0.091074l0.051166 20.60427 145.849785-0.36532-0.051165-20.60427c-0.062422-25.086351 36.354999-25.177426 36.418444-0.091074l0.051166 20.60427 21.970384-0.055259 0.270153 107.8708-16.125259 95.303576c-3.502777 17.203824-23.871687 21.723767-28.253485 23.206538zM373.068276 599.757972l10.100032 69.073168c1.378393 8.397251 4.336772 13.916964 15.588023 13.889336l165.404144-0.413416c11.205203-0.027629 14.148231-5.562692 15.48467-13.967106l9.755178-69.117171c0.900509-6.631024-1.076518-13.196557-10.515495-13.173021l-195.387016 0.489141c-9.42465 0.023536-11.381212 6.598278-10.435676 13.225209l0.00614-0.00614z m39.94578-66.302055c-0.010233-3.967358-3.316535-7.169283-7.396457-7.15905l-29.876448 0.074701c-4.094248 0.010233-7.391341 3.229554-7.381107 7.195889l0.030699 12.289908c0.010233 3.961218 3.322675 7.157004 7.416923 7.14677l29.876448-0.074701c4.079922-0.010233 7.370875-3.230578 7.360642-7.18361l-0.0307-12.289907z m180.769087-0.452301c-0.010233-3.967358-3.314489-7.169283-7.402597-7.159051l-29.889751 0.074702c-4.094248 0.010233-7.391341 3.229554-7.381107 7.195889l0.030699 12.289907c0.010233 3.961218 3.322675 7.157004 7.416923 7.146771l29.889751-0.074701c4.081968-0.010233 7.377014-3.230578 7.366781-7.18361l-0.030699-12.289907z"  horiz-adv-x="1024" />

    
    <glyph glyph-name="zhangaiwubaojing" unicode="&#60188;" d="M1019.623831 384c0-280.353153-227.27119-507.624343-507.624343-507.624343S4.375146 103.646847 4.375146 384 231.646336 891.624343 511.999488 891.624343s507.624343-227.27119 507.624343-507.624343zM511.999488 833.610044c-248.312412 0-449.610044-201.297632-449.610044-449.610044s201.297632-449.610044 449.610044-449.610044 449.610044 201.297632 449.610045 449.610044-201.297632 449.610044-449.610045 449.610044zM675.175895 658.388301l-395.460774 0.989537c-13.594623 0.033769-24.739451-10.728342-24.772196-23.901363v-186.40648l32.598442 96.236831s15.403828 37.892005 92.641957 41.879829h193.57167c79.849606-4.296863 92.603071-42.883693 92.603071-42.883692l33.471323-98.882078V634.363118c0.032746 13.173021-11.060917 23.990391-24.653493 24.025183zM539.717783 228.450295c0 3.276626 1.235131 6.446829 3.5345 9.457396l30.065759 62.981426c4.190439 9.197476 18.428721 38.994106 21.135367 44.268226l11.086499 23.223934-278.958386 0.697895c-14.476713 0.035816-17.482163 10.135848-16.028045 20.313652l0.010233-0.00921 15.514345 106.096387c2.118244 12.898775 6.6607 21.376866 23.943319 21.333887l254.059299-0.635473c17.21201-0.042979 21.731954-8.544607 23.784706-21.453614l8.668427-61.419862 2.765997 5.79396 39.058574-84.893482 0.073678 29.41596-24.769126 146.384975c-5.379521 26.421766-36.666084 33.364899-43.395346 35.642778-15.57165 5.272074-87.478354 11.099802-133.040039 11.552104-45.602617-0.224104-113.416096-4.422729-133.156696-10.898211-8.899694-2.919493-38.051641-9.008164-43.541679-35.401278l-25.490557-146.259109-0.414439-165.711136 33.766034-0.083911-0.078794-31.638581c-0.096191-38.532595 55.821353-38.672788 55.917544-0.140193l0.078794 31.648814 179.532933-0.449231c-2.669806 3.225461-4.122901 6.641257-4.122901 10.181897z m-167.796634 59.092863c-0.01535-6.093788-5.094018-11.011798-11.360745-10.996449l-45.890166 0.114611c-6.28924 0.01535-11.352559 4.959965-11.338233 11.053753l0.047072 18.87693c0.01535 6.083555 5.104251 10.992355 11.392468 10.977005l45.890166-0.11461c6.266727-0.01535 11.320836-4.962012 11.305487-11.033288l-0.046049-18.877952zM635.561665 201.427848c40.732703 0 73.752748 11.958356 73.752748 26.712385 0 2.320858-0.819668 4.573155-2.357698 6.722098l-22.530132 48.966225c-8.082072-8.520047-27.050076-14.501272-49.160653-14.501272-21.201881 0-39.511899 5.499248-48.108695 13.461593l-22.681581-47.51313c-1.734504-2.270716-2.666736-4.663206-2.666736-7.134491 0-14.753005 33.021068-26.713408 73.752747-26.713408zM764.508479 190.822302l-40.760332 14.523785c0.264013-1.14815 0.403183-2.296299 0.403182-3.434215 0-19.637246-39.795355-35.554774-88.884376-35.554774-49.091068 0-88.886423 15.917528-88.886423 35.554774 0 1.969864 0.407276 3.957125 1.176802 5.942339l-38.657438-13.119809c-8.637728-4.2897-9.92607-12.029988-2.87856-17.287735l113.945145-64.306608c7.05058-5.257747 19.765159-6.040576 28.402887-1.749854l113.2626 62.143339c8.636704 4.2897 9.92607 12.031011 2.876513 17.288758zM636.204301 296.843988c19.579941 0 35.452443 6.347568 35.452444 14.180977 0 1.597381-0.660032 3.133364-1.877767 4.564969l-32.846083 71.38891-33.831526-70.870094c-1.51654-1.578961-2.348488-3.292999-2.348487-5.083785 0-7.831362 15.871479-14.180977 35.452443-14.180977h-0.001024z"  horiz-adv-x="1024" />

    
    <glyph glyph-name="chejuguojinbaojing" unicode="&#60189;" d="M1019.623831 383.261173c0-280.353153-227.27119-507.624343-507.624343-507.624343S4.375146 102.90802 4.375146 383.261173 231.646336 890.885516 511.999488 890.885516s507.624343-227.27119 507.624343-507.624343zM511.999488 832.871217c-248.312412 0-449.610044-201.297632-449.610044-449.610044s201.297632-449.610044 449.610044-449.610044 449.610044 201.297632 449.610045 449.610044-201.297632 449.610044-449.610045 449.610044zM693.683411 714.029552l-363.257328 0.908696c-12.487406 0.031722-22.724561-9.854439-22.75526-21.955035v-171.226756L337.614809 610.15681s14.149255 34.806737 85.098144 38.46915H600.520591c73.347518-3.946892 85.062328-39.391149 85.062328-39.391149l30.745235-90.829682V691.96093c0.030699 12.100596-10.159384 22.037922-22.644743 22.068622zM634.061498 628.843404c-14.303774 4.842285-80.354096 10.1952-122.206296 10.610662-41.889039-0.205685-104.179734-4.062526-122.313743-10.011004-8.175193-2.681062-34.95307-8.275477-39.995923-32.518625L326.131267 462.576613l-0.38067-152.216797 31.016411-0.077771-0.072655-29.061896c-0.089028-35.395138 51.275827-35.523051 51.364855-0.128937l0.072655 29.071106 205.782783-0.514723-0.072655-29.071106c-0.089028-35.395138 51.294247-35.524075 51.383274-0.128936l0.072655 29.071105 30.997991-0.077771 0.38067 152.197354-22.751166 134.464481c-4.944616 24.270776-33.683147 30.648021-39.863917 32.740682zM358.762455 466.930781l14.250562 97.456612c1.945305 11.847839 6.118348 19.636223 21.99392 19.596314l233.371119-0.584308c15.810081-0.039909 19.962657-7.848759 21.847587-19.705807l13.763468-97.518011c1.270946-9.356089-1.518586-18.619056-14.836916-18.585287l-275.67562 0.689708c-13.297864 0.033769-16.058744 9.31004-14.72333 18.658965l0.00921-0.008186z m56.360636-93.54656c-0.014326-5.597485-4.679579-10.115382-10.435677-10.101055l-42.153052 0.105401c-5.776563 0.014326-10.428513 4.555759-10.414187 10.153244l0.042978 17.339923c0.014326 5.588275 4.688789 10.097986 10.465353 10.082636l42.153052-0.1054c5.756097-0.014326 10.398838-4.558829 10.385535-10.134825l-0.044002-17.339924z m255.04986-0.638543c-0.014326-5.597485-4.676509-10.115382-10.444887-10.101055l-42.171471 0.1054c-5.776563 0.014326-10.428513 4.555759-10.414188 10.153245l0.042979 17.339923c0.014326 5.588275 4.688789 10.097986 10.465353 10.082636l42.171472-0.1054c5.759167-0.014326 10.408047-4.558829 10.394744-10.134825l-0.044002-17.339924zM684.457282 127.487835c3.662413 3.91517 5.655813 9.052167 5.671163 14.511505 0 5.556553-2.065032 10.806113-5.867638 14.73561-3.76065 3.929496-8.79941 6.105045-14.147208 6.105044-5.347798 0-10.371208-2.175549-14.174837-6.105044-38.427194-39.984666-89.556689-62.018495-143.940297-62.018496s-105.497753 22.021549-143.93825 62.005193c-3.790326 3.929496-8.81476 6.106068-14.161534 6.106068-5.360078 0-10.386558-2.175549-14.174838-6.106068-3.790326-3.929496-5.853311-9.150404-5.853311-14.70798 0-5.571902 2.077312-10.80816 5.865591-14.737656 46.0058-47.856961 107.183138-74.214259 172.261319-74.214259s126.255519 26.358321 172.249039 74.214259c0.083911 0.058328 0.155543 0.141216 0.210801 0.211824zM511.998465 137.970584c40.841174 0 79.240739 15.903202 108.137883 44.770669 8.476045 8.506744 8.503675 22.329565 0 30.848589-4.098341 4.126994-9.585309 6.40078-15.425318 6.40078-5.837962 0-11.310603-2.273786-15.437597-6.38543-20.62883-20.646226-48.081065-32.014134-77.274968-32.014135-29.178553 0-56.627718 11.367909-77.274968 32.014135-4.111644 4.111644-9.598612 6.385431-15.423271 6.38543s-11.298324-2.273786-15.409968-6.38543c-4.126994-4.113691-6.40078-9.600659-6.40078-15.438621 0-5.824659 2.273786-11.299347 6.40078-15.425318 28.869514-28.881794 67.267033-44.770669 108.108207-44.770669z"  horiz-adv-x="1024" />

    
    <glyph glyph-name="chouyanbaojing" unicode="&#60190;" d="M1019.623831 384c0-280.353153-227.27119-507.624343-507.624343-507.624343S4.375146 103.646847 4.375146 384 231.646336 891.624343 511.999488 891.624343s507.624343-227.27119 507.624343-507.624343zM511.999488 833.610044c-248.312412 0-449.610044-201.297632-449.610044-449.610044s201.297632-449.610044 449.610044-449.610044 449.610044 201.297632 449.610045 449.610044-201.297632 449.610044-449.610045 449.610044zM825.380872 321.717492H209.972711c-9.850345 0-23.405059-8.936533-23.40506-18.787902v-124.866893c0-9.851369 13.554714-16.597003 23.40506-16.597003h615.407137c9.851369 0 12.050454 6.745634 12.050454 16.597003V302.92959c0.001023 9.851369-2.198062 18.787902-12.04943 18.787902z m-23.76117-125.337614h-34.918278v89.530083h34.918278v-89.530083zM695.534572 586.696492c-5.802146-0.567935-11.567453-1.3743-17.283642-2.173503-38.70758-5.452175-66.673515-9.385764-89.134063 75.854619-0.080841 0.303922-0.227174 0.573051-0.325412 0.865717-0.183172 0.541329-0.356111 1.088798-0.60068 1.601474-0.195451 0.414439-0.444115 0.782829-0.678452 1.169639-0.23536 0.39295-0.452301 0.797156-0.727571 1.167593-0.284479 0.379647-0.613984 0.714268-0.929162 1.063215-0.298805 0.327458-0.581238 0.666172-0.911766 0.968047-0.361227 0.327458-0.75827 0.595564-1.151219 0.883114-0.344854 0.25378-0.670266 0.525979-1.039679 0.751106-0.509606 0.304945-1.047866 0.538259-1.593288 0.778736-0.26913 0.119727-0.50449 0.281409-0.783853 0.385787-0.035816 0.013303-0.076748 0.016373-0.11461 0.030699-0.620124 0.224104-1.264806 0.363274-1.915629 0.49835-0.265036 0.057305-0.532119 0.155543-0.800226 0.195452-0.50142 0.075725-1.020236 0.062422-1.531889 0.085957-0.413416 0.014326-0.830925 0.072655-1.242294 0.051166-0.36839-0.01535-0.73985-0.11154-1.11131-0.158613-0.550539-0.071631-1.105171-0.125867-1.639337-0.257873-0.053212-0.014326-0.105401-0.014326-0.156566-0.025583-0.409322-0.109494-0.769526-0.293689-1.157359-0.433881-0.426719-0.155543-0.857531-0.281409-1.26583-0.473791-0.515746-0.242524-0.979304-0.547469-1.453095-0.842181-0.295735-0.187265-0.602727-0.346901-0.884136-0.553609-0.463558-0.342808-0.87288-0.731664-1.287319-1.125637-0.254803-0.23843-0.518816-0.451278-0.756224-0.707104-0.387833-0.429789-0.719384-0.898463-1.051958-1.369184-0.198521-0.276293-0.418532-0.535189-0.594541-0.827855-0.350994-0.578168-0.629333-1.193175-0.893347-1.815345-0.088004-0.205685-0.212848-0.381693-0.291642-0.590448l-0.054235-0.152472c-0.029676-0.080841-0.054235-0.162706-0.082888-0.248664-23.255657-62.921052-10.380418-102.017488 4.549619-123.734092 18.890232-27.469632 52.962236-44.110637 91.14486-44.512796 3.071965-0.029676 6.287193-0.036839 9.618055-0.044002 32.150234-0.046049 72.161506-0.107447 95.057983-24.628934 15.231913-16.310477 21.720697-42.900066 19.296485-79.029938-0.011256-0.135076 0.017396-0.258896 0.011256-0.391926-0.022513-0.540306 0.014326-1.068332 0.055259-1.602497 0.030699-0.407276 0.047072-0.813528 0.110517-1.210572 0.077771-0.478907 0.208754-0.938372 0.334621-1.408069 0.116657-0.421602 0.216941-0.845251 0.366344-1.25355 0.162706-0.433882 0.376577-0.839111 0.579191-1.25662 0.195451-0.397043 0.37146-0.796132 0.602727-1.171686 0.243547-0.401136 0.538259-0.766456 0.821715-1.147126 0.260943-0.340761 0.508583-0.689708 0.800226-1.010003 0.311085-0.338714 0.657986-0.638543 0.99977-0.946558 0.343831-0.311085 0.679475-0.621147 1.055028-0.89744 0.332575-0.245593 0.696872-0.452301 1.054006-0.670265 0.449231-0.274246 0.900509-0.542352 1.38351-0.763387 0.12382-0.058328 0.224104-0.140193 0.344854-0.191358 0.150426-0.065492 0.308015-0.062422 0.461511-0.119727 1.017166-0.397043 2.082428-0.677429 3.201925-0.831948 0.234337-0.030699 0.460488-0.096191 0.695848-0.11768 0.088004-0.008186 0.168846-0.036839 0.260943-0.041956 1.172709-0.077771 2.311649 0.019443 3.41989 0.218988 0.292666 0.050142 0.562818 0.151449 0.850367 0.221034a14.234189 14.234189 0 0 1 2.706645 0.957815c0.318248 0.152473 0.630357 0.298805 0.938372 0.472767 1.019213 0.583285 1.979074 1.252527 2.826372 2.065032 0.036839 0.035816 0.086981 0.056282 0.125866 0.094144 0.199545 0.196475 0.356111 0.442068 0.547469 0.652869 0.382717 0.424672 0.773619 0.847298 1.107217 1.323135 0.157589 0.226151 0.274246 0.484024 0.418533 0.721431 0.324388 0.529049 0.638543 1.057075 0.891299 1.629104 0.026606 0.059352 0.063445 0.104377 0.090051 0.163729 36.659945 85.437881 21.732977 134.333498 2.752694 160.299892-23.415292 32.055067-66.798359 48.342008-116.037806 43.567262z m93.241614-60.22464c12.605086-17.246803 16.84669-40.685631 12.901844-69.162196-4.490268 11.729136-10.665921 21.869077-18.567891 30.330796-31.253818 33.474392-80.040964 33.542954-115.667369 33.595142-3.234671 0.007163-6.363941 0.00921-9.347902 0.039909-29.006637 0.305969-54.493102 12.377912-68.180846 32.280194-9.694803 14.106276-13.636578 32.147164-11.893888 53.266158 26.198685-55.627948 61.826114-56.221466 104.167455-50.265824 5.313006 0.7552 10.679223 1.5104 16.077163 2.029216 39.200814 3.809769 73.039503-8.197706 90.511434-32.113395z m0 0M740.923318 409.254174c12.279674-16.800641 16.411785-39.633672 12.568247-67.373457-4.374634 11.425214-10.390651 21.303188-18.087961 29.546943-30.446429 32.608675-77.970816 32.67519-112.676245 32.726356-3.15076 0.007163-6.199189 0.008186-9.106402 0.038885-28.256554 0.298805-53.084009 12.05864-66.417689 31.445176-9.444093 13.740956-13.284561 31.31624-11.586896 51.888788 25.521257-54.18918 60.226686-54.767348 101.473089-48.965202 5.175883 0.735757 10.402931 1.470491 15.660678 1.977028 38.189787 3.708462 71.15355-7.987928 88.173179-31.284517z"  horiz-adv-x="1024" />

    
    <glyph glyph-name="suoxiao" unicode="&#60191;" d="M4.897032 338.974527v90.050946h1014.20389v-90.050946z"  horiz-adv-x="1024" />

    
    <glyph glyph-name="fangda" unicode="&#60192;" d="M557.024961-123.101433h-90.050945V891.102457h90.050945zM4.897032 338.974527v90.050946h1014.20389v-90.050946z"  horiz-adv-x="1024" />

    
    <glyph glyph-name="shangbao" unicode="&#60193;" d="M1021.931387 227.087251v-271.792173c0-21.701255-17.591657-39.292911-39.292912-39.292911H41.229518c-21.701255 0-39.292911 17.591657-39.292911 39.292911V227.087251c0 21.701255 17.591657 39.297005 39.292911 39.297004 21.705348 0 39.298028-17.59575 39.298028-39.297004v-232.495168h862.812901v232.495168c0 21.701255 17.596773 39.297005 39.298028 39.297004s39.292911-17.59575 39.292912-39.297004zM484.182956 840.456986a39.243793 39.243793 0 0 0 55.590086 0l245.51367-245.461481c15.349593-15.364943 15.337313-40.264029-0.023536-55.613622-15.365966-15.349593-40.265052-15.341407-55.618739 0.023536l-178.290639 178.346921V188.012304c-0.775666-21.157879-18.152429-37.910425-39.321564-37.910425-21.173229 0-38.549991 16.752546-39.321564 37.910425V717.856717L294.311561 539.457608a39.308261 39.308261 0 0 0-65.762773 17.624402 39.298028 39.298028 0 0 0 10.172687 37.965684l245.461481 245.409292z"  horiz-adv-x="1024" />

    
    <glyph glyph-name="gengduo" unicode="&#60194;" d="M391.667889 745.106338c0 66.417689 53.91084 120.328529 120.328529 120.328529 66.423829 0 120.334669-53.91084 120.33467-120.328529 0-66.422805-53.91084-120.334669-120.33467-120.334669-66.417689-0.001023-120.328529 53.911864-120.328529 120.334669z m0 0M391.667889 384.107447c0 66.417689 53.91084 120.334669 120.328529 120.334669 66.423829 0 120.334669-53.91698 120.33467-120.334669s-53.91084-120.328529-120.33467-120.328529c-66.417689 0-120.328529 53.91084-120.328529 120.328529z m0 0M391.667889 22.894685c0 66.423829 53.91084 120.334669 120.328529 120.334669 66.423829 0 120.334669-53.91084 120.33467-120.334669 0-66.417689-53.91084-120.328529-120.33467-120.328529-66.417689 0-120.328529 54.125735-120.328529 120.328529z m0 0"  horiz-adv-x="1024" />

    


  </font>
</defs>
</svg>
